<svg viewBox="0 0 50 50" fill="none" xmlns="http://www.w3.org/2000/svg">
<circle cx="25" cy="25" r="24.5" stroke="#32872F"/>
<path d="M37.1979 12.8021C36.3865 11.9906 34.9084 11.6043 33.4351 12.57L26.9211 16.8402L19.5269 15.1662C18.6291 14.963 17.8606 14.9809 17.2431 15.2193C16.6168 15.461 16.1654 15.9156 15.9378 16.534C15.4304 17.9128 16.208 19.8182 17.5693 20.5316L22.7377 23.2401L18.8275 27.1531C17.9037 27.0637 16.6082 27.1259 15.4918 27.3239C13.5793 27.6628 12.4416 28.3207 12.1101 29.279C11.8861 29.9266 12.0457 30.3917 12.2189 30.668C12.7297 31.4821 13.8642 31.6156 15.1779 31.7703C16.0879 31.8774 17.2204 32.0107 17.6049 32.3951C17.9893 32.7796 18.1226 33.9121 18.2297 34.822C18.3843 36.1357 18.5178 37.2703 19.332 37.7811C19.5111 37.8934 19.7696 38.0001 20.1059 38C20.2881 38 20.4933 37.9687 20.7209 37.8899C21.6793 37.5584 22.3371 36.4206 22.6761 34.5083C22.874 33.3918 22.9364 32.0963 22.8469 31.1725L26.7599 27.2623L29.4684 32.4307C30.1817 33.792 32.0871 34.5696 33.4659 34.0621C34.0843 33.8345 34.5389 33.3832 34.7807 32.7569C35.0191 32.1394 35.037 31.371 34.8337 30.4731L33.1597 23.0789L37.43 16.5649C38.3958 15.0917 38.0093 13.6135 37.1979 12.8021ZM36.0709 15.674L31.6116 22.4764C31.5517 22.5676 31.5109 22.67 31.4915 22.7773C31.4721 22.8847 31.4745 22.9949 31.4986 23.1013L33.2487 30.8319C33.3719 31.376 33.491 32.3212 32.9046 32.537C32.2871 32.7646 31.2419 32.3139 30.9078 31.6764L27.6866 25.5296C27.6274 25.4168 27.5426 25.3194 27.4389 25.2454C27.3352 25.1714 27.2155 25.1228 27.0896 25.1036C26.9636 25.0843 26.8349 25.095 26.7138 25.1347C26.5928 25.1744 26.4827 25.242 26.3926 25.332L21.4142 30.3067C21.3214 30.3995 21.2524 30.5135 21.2131 30.6388C21.1739 30.7641 21.1657 30.897 21.1891 31.0262C21.3002 31.6404 21.2984 32.97 21.0761 34.2245C20.7936 35.8176 20.3405 36.3019 20.1897 36.3541C20.1843 36.356 20.1791 36.3577 20.1742 36.3593C20.0125 36.0672 19.9081 35.1798 19.8436 34.632C19.693 33.3525 19.5373 32.0294 18.7539 31.246C17.9706 30.4627 16.6475 30.307 15.3679 30.1564C14.8201 30.0919 13.9327 29.9874 13.6407 29.8258C13.6423 29.8208 13.6439 29.8157 13.6459 29.8102C13.698 29.6594 14.1823 29.2063 15.7755 28.9239C17.03 28.7015 18.3596 28.6997 18.9738 28.8109C19.103 28.8343 19.2359 28.826 19.3612 28.7868C19.4865 28.7475 19.6005 28.6785 19.6933 28.5857L24.668 23.6074C24.758 23.5172 24.8256 23.4072 24.8653 23.2861C24.905 23.165 24.9157 23.0363 24.8964 22.9104C24.8772 22.7844 24.8286 22.6647 24.7546 22.561C24.6806 22.4573 24.5832 22.3725 24.4704 22.3133L18.3236 19.0922C17.686 18.7581 17.2355 17.713 17.4629 17.0953C17.6787 16.5089 18.6239 16.628 19.1681 16.7513L26.8987 18.5013C27.1137 18.55 27.3392 18.5093 27.5236 18.3884L34.326 13.929C35.0834 13.4326 35.7126 13.6149 36.0488 13.9512C36.3851 14.2874 36.5675 14.9166 36.0709 15.674Z" fill="#32872F" stroke="white" stroke-width="0.5"/>
</svg>
