<svg viewBox="0 0 50 50" xmlns="http://www.w3.org/2000/svg">
<circle cx="24.6724" cy="24.6724" r="23.9224" stroke-width="1.5" fill="none" />
<path d="M43.8322 26.7716H41.9383V22.4054C41.9383 22.2521 41.8773 22.105 41.7689 21.9966C41.6604 21.8881 41.5134 21.8272 41.36 21.8272H38.2299V19.3151C38.2299 19.1618 38.169 19.0147 38.0605 18.9063C37.9521 18.7978 37.805 18.7369 37.6517 18.7369C37.4983 18.7369 37.3512 18.7978 37.2428 18.9063C37.1343 19.0147 37.0734 19.1618 37.0734 19.3151V21.8272H35.7577V17.461C35.7577 17.3077 35.6968 17.1606 35.5884 17.0521C35.4799 16.9437 35.3328 16.8828 35.1795 16.8828H31.4314V14.3707C31.4313 14.284 31.4118 14.1984 31.3743 14.1202C31.3367 14.0421 31.282 13.9734 31.2143 13.9192L28.3411 11.6206V10.0444C28.3411 9.89105 28.2801 9.74397 28.1717 9.63552C28.0632 9.52708 27.9162 9.46615 27.7628 9.46615C27.6094 9.46615 27.4624 9.52708 27.3539 9.63552C27.2455 9.74397 27.1845 9.89105 27.1845 10.0444V13.7925H25.2508V6.33607C25.2508 6.18271 25.1898 6.03563 25.0814 5.92718C24.9729 5.81874 24.8259 5.75781 24.6725 5.75781C24.5191 5.75781 24.3721 5.81874 24.2636 5.92718C24.1552 6.03563 24.0942 6.18271 24.0942 6.33607V8.56877L20.5553 12.1077C20.5016 12.1614 20.459 12.2251 20.4299 12.2953C20.4009 12.3655 20.3859 12.4407 20.3859 12.5166V16.8828H19.0702V14.3707C19.0702 14.2174 19.0093 14.0703 18.9009 13.9618C18.7924 13.8534 18.6453 13.7925 18.492 13.7925C18.3386 13.7925 18.1915 13.8534 18.0831 13.9618C17.9746 14.0703 17.9137 14.2174 17.9137 14.3707V16.8828H16.0198C15.8664 16.8828 15.7194 16.9437 15.6109 17.0521C15.5025 17.1606 15.4415 17.3077 15.4415 17.461V21.8272H14.1258V21.1694C14.1258 21.016 14.0649 20.8689 13.9564 20.7605C13.848 20.652 13.7009 20.5911 13.5476 20.5911H7.98501C7.83164 20.5911 7.68456 20.652 7.57611 20.7605C7.46767 20.8689 7.40675 21.016 7.40675 21.1694V26.7716H5.51283C5.35947 26.7716 5.21238 26.8325 5.10394 26.941C4.99549 27.0494 4.93457 27.1965 4.93457 27.3499C4.93457 27.5032 4.99549 27.6503 5.10394 27.7588C5.21238 27.8672 5.35947 27.9281 5.51283 27.9281H6.39155L7.12617 29.3974C7.4355 30.016 8.05733 30.4003 8.749 30.4003H18.1346L19.4873 33.1056C19.7965 33.7243 20.4184 34.1087 21.1101 34.1087H28.235C28.9267 34.1087 29.5485 33.7243 29.8577 33.1057L31.2104 30.4004H40.596C41.2877 30.4004 41.9095 30.0161 42.2188 29.3975L42.9534 27.9282H43.8322C43.9855 27.9282 44.1326 27.8673 44.2411 27.7588C44.3495 27.6504 44.4105 27.5033 44.4105 27.3499C44.4105 27.1965 44.3495 27.0494 44.2411 26.941C44.1326 26.8325 43.9855 26.7716 43.8322 26.7716ZM40.7817 22.9837V26.7716H33.9035V22.9837H40.7817ZM28.341 13.1017L30.2748 14.6487V18.6972C30.2748 18.8505 30.3357 18.9976 30.4441 19.1061C30.5526 19.2145 30.6997 19.2754 30.853 19.2754C31.0064 19.2754 31.1535 19.2145 31.2619 19.1061C31.3704 18.9976 31.4313 18.8505 31.4313 18.6972V18.0394H34.6011V21.8273H33.3252C33.1718 21.8273 33.0247 21.8882 32.9163 21.9966C32.8079 22.1051 32.7469 22.2522 32.7469 22.4055V26.7717H31.4313V21.1695C31.4313 21.0161 31.3704 20.8691 31.2619 20.7606C31.1535 20.6522 31.0064 20.5913 30.853 20.5913C30.6997 20.5913 30.5526 20.6522 30.4441 20.7606C30.3357 20.8691 30.2748 21.0161 30.2748 21.1695V26.7717H28.341V13.1017ZM27.1845 14.949V26.7716H24.0147V14.949H27.1845ZM24.0942 10.2043V13.7925H23.4364C23.283 13.7925 23.136 13.8535 23.0275 13.9619C22.9191 14.0704 22.8582 14.2174 22.8582 14.3708V26.7717H21.5425V12.7561H21.5424L24.0942 10.2043ZM20.3859 18.0394V26.7717H19.0702V22.4055C19.0702 22.2522 19.0093 22.1051 18.9009 21.9966C18.7924 21.8882 18.6453 21.8273 18.492 21.8273H16.5981V18.0394H20.3859ZM8.56327 21.7476H12.9692V23.6415C12.9692 23.7949 13.0301 23.942 13.1386 24.0504C13.247 24.1589 13.3941 24.2198 13.5475 24.2198C13.7008 24.2198 13.8479 24.1589 13.9564 24.0504C14.0648 23.942 14.1257 23.7949 14.1257 23.6415V22.9837H17.9136V26.7716H14.1257V26.1138C14.1257 25.9604 14.0648 25.8133 13.9564 25.7049C13.8479 25.5965 13.7008 25.5355 13.5475 25.5355C13.3941 25.5355 13.247 25.5965 13.1386 25.7049C13.0301 25.8133 12.9692 25.9604 12.9692 26.1138V26.7716H8.56327V21.7476ZM28.8232 32.5886C28.769 32.6981 28.6851 32.7903 28.5811 32.8545C28.4771 32.9188 28.3571 32.9526 28.2349 32.9522H21.11C20.9878 32.9526 20.8679 32.9188 20.7639 32.8545C20.6599 32.7903 20.576 32.6981 20.5217 32.5886L19.4276 30.4005H29.9174L28.8232 32.5886ZM41.1844 28.8802C41.1301 28.9897 41.0462 29.0818 40.9422 29.1461C40.8382 29.2104 40.7183 29.2442 40.596 29.2438H8.749C8.62674 29.2442 8.50681 29.2104 8.4028 29.1461C8.2988 29.0818 8.21488 28.9897 8.16057 28.8802L7.68454 27.9281H41.6605L41.1844 28.8802ZM24.6725 35.4244C24.5191 35.4244 24.3721 35.4853 24.2636 35.5938C24.1552 35.7022 24.0942 35.8493 24.0942 36.0026V44.6554C24.0942 44.8088 24.1552 44.9559 24.2636 45.0643C24.3721 45.1728 24.5191 45.2337 24.6725 45.2337C24.8259 45.2337 24.9729 45.1728 25.0814 45.0643C25.1898 44.9559 25.2508 44.8088 25.2508 44.6554V36.0026C25.2508 35.8493 25.1898 35.7022 25.0814 35.5938C24.9729 35.4853 24.8259 35.4244 24.6725 35.4244ZM27.7628 39.7508C27.6094 39.7508 27.4624 39.8117 27.3539 39.9201C27.2455 40.0286 27.1845 40.1757 27.1845 40.329V41.5652C27.1845 41.7186 27.2455 41.8656 27.3539 41.9741C27.4624 42.0825 27.6094 42.1435 27.7628 42.1435C27.9162 42.1435 28.0632 42.0825 28.1717 41.9741C28.2801 41.8656 28.3411 41.7186 28.3411 41.5652V40.329C28.3411 40.1757 28.2801 40.0286 28.1717 39.9201C28.0632 39.8117 27.9162 39.7508 27.7628 39.7508ZM27.7628 35.4244C27.6094 35.4244 27.4624 35.4853 27.3539 35.5938C27.2455 35.7022 27.1845 35.8493 27.1845 36.0026V37.8568C27.1845 38.0101 27.2455 38.1572 27.3539 38.2657C27.4624 38.3741 27.6094 38.435 27.7628 38.435C27.9162 38.435 28.0632 38.3741 28.1717 38.2657C28.2801 38.1572 28.3411 38.0101 28.3411 37.8568V36.0026C28.3411 35.8493 28.2801 35.7022 28.1717 35.5938C28.0632 35.4853 27.9162 35.4244 27.7628 35.4244ZM21.5823 39.7508C21.4289 39.7508 21.2818 39.8117 21.1734 39.9201C21.0649 40.0286 21.004 40.1757 21.004 40.329V41.5652C21.004 41.7186 21.0649 41.8656 21.1734 41.9741C21.2818 42.0825 21.4289 42.1435 21.5823 42.1435C21.7356 42.1435 21.8827 42.0825 21.9912 41.9741C22.0996 41.8656 22.1605 41.7186 22.1605 41.5652V40.329C22.1605 40.1757 22.0996 40.0286 21.9912 39.9201C21.8827 39.8117 21.7356 39.7508 21.5823 39.7508ZM21.5823 35.4244C21.4289 35.4244 21.2818 35.4853 21.1734 35.5938C21.0649 35.7022 21.004 35.8493 21.004 36.0026V37.8568C21.004 38.0101 21.0649 38.1572 21.1734 38.2657C21.2818 38.3741 21.4289 38.435 21.5823 38.435C21.7356 38.435 21.8827 38.3741 21.9912 38.2657C22.0996 38.1572 22.1605 38.0101 22.1605 37.8568V36.0026C22.1605 35.8493 22.0996 35.7022 21.9912 35.5938C21.8827 35.4853 21.7356 35.4244 21.5823 35.4244Z" />
</svg>
