<svg viewBox="0 0 50 50" fill="none" xmlns="http://www.w3.org/2000/svg">
<circle cx="25" cy="25" r="24.5" stroke="#32872F"/>
<path d="M33.75 11H15.0834C12.8316 11 11 12.8316 11 15.0834V33.75C11 36.0016 12.8316 37.8334 15.0834 37.8334H26.8049C26.9313 37.8334 27.0542 37.7924 27.1553 37.7164C27.2563 37.6404 27.3299 37.5337 27.3649 37.4122C27.4001 37.2906 27.3948 37.1609 27.3498 37.0426C27.3047 36.9243 27.2224 36.8239 27.1152 36.7566C25.0607 35.4627 23.8334 33.2484 23.8334 30.8334C23.8334 26.9729 26.9729 23.8334 30.8334 23.8334C33.2484 23.8334 35.4627 25.0608 36.7565 27.1153C36.8954 27.3358 37.1625 27.4361 37.4121 27.3649C37.5336 27.3299 37.6404 27.2563 37.7164 27.1553C37.7923 27.0543 37.8334 26.9313 37.8333 26.8049V15.0834C37.8334 12.8316 36.0016 11 33.75 11ZM36.6666 25.1236C35.1476 23.5626 33.064 22.6666 30.8333 22.6666C26.3299 22.6666 22.6666 26.33 22.6666 30.8333C22.6666 33.0639 23.5626 35.1476 25.1236 36.6666H15.0834C13.4757 36.6666 12.1667 35.3576 12.1667 33.75V15.0834C12.1667 13.4757 13.4757 12.1667 15.0834 12.1667H33.75C35.3576 12.1667 36.6666 13.4757 36.6666 15.0834V25.1236Z" fill="#32872F"/>
<path d="M30.8334 22.6666C26.33 22.6666 22.6667 26.33 22.6667 30.8333C22.6667 35.3366 26.33 39 30.8334 39C35.3367 39 39 35.3366 39 30.8334C39 26.3301 35.3366 22.6666 30.8334 22.6666ZM30.8334 37.8334C26.9729 37.8334 23.8334 34.6939 23.8334 30.8334C23.8334 26.9729 26.9729 23.8334 30.8334 23.8334C34.6939 23.8334 37.8334 26.9729 37.8334 30.8334C37.8334 34.6939 34.6939 37.8334 30.8334 37.8334ZM22.0834 18H15.0834C14.7614 18 14.5 18.2614 14.5 18.5834C14.5 18.9054 14.7614 19.1667 15.0834 19.1667H22.0834C22.4054 19.1667 22.6667 18.9054 22.6667 18.5834C22.6667 18.2614 22.4054 18 22.0834 18Z" fill="#32872F"/>
<path d="M18.5832 14.5C18.2612 14.5 17.9998 14.7614 17.9998 15.0834V22.0834C17.9998 22.4054 18.2612 22.6667 18.5832 22.6667C18.9052 22.6667 19.1665 22.4054 19.1665 22.0834V15.0834C19.1665 14.7614 18.9052 14.5 18.5832 14.5ZM33.7498 18H27.9165C27.5945 18 27.3331 18.2614 27.3331 18.5834C27.3331 18.9054 27.5945 19.1667 27.9165 19.1667H33.7498C34.0718 19.1667 34.3332 18.9054 34.3332 18.5834C34.3332 18.2614 34.0718 18 33.7498 18ZM21.3283 33.3381L15.495 27.5049C15.2675 27.2774 14.8976 27.2774 14.6701 27.5049C14.4426 27.7324 14.4426 28.1022 14.6701 28.3297L20.5035 34.1631C20.6133 34.2721 20.7617 34.3334 20.9165 34.3334C21.0658 34.3334 21.2151 34.2763 21.3283 34.1631C21.5558 33.9355 21.5558 33.5656 21.3283 33.3381Z" fill="#32872F"/>
<path d="M21.3283 27.5051C21.1008 27.2776 20.7309 27.2776 20.5034 27.5051L14.6701 33.3384C14.4426 33.5659 14.4426 33.9357 14.6701 34.1632C14.7799 34.2723 14.9284 34.3336 15.0831 34.3336C15.2325 34.3336 15.3818 34.2764 15.495 34.1632L21.3283 28.3299C21.5558 28.1024 21.5558 27.7326 21.3283 27.5051ZM33.7498 28.5002H27.9164C27.5944 28.5002 27.3331 28.7616 27.3331 29.0836C27.3331 29.4056 27.5944 29.6669 27.9164 29.6669H33.7498C34.0718 29.6669 34.3331 29.4056 34.3331 29.0836C34.3331 28.7616 34.0718 28.5002 33.7498 28.5002ZM33.7498 32.0002H27.9164C27.5944 32.0002 27.3331 32.2616 27.3331 32.5836C27.3331 32.9056 27.5944 33.167 27.9164 33.167H33.7498C34.0718 33.167 34.3331 32.9056 34.3331 32.5836C34.3331 32.2616 34.0718 32.0002 33.7498 32.0002Z" fill="#32872F"/>
</svg>
