<svg viewBox="0 0 50 50" fill="none" xmlns="http://www.w3.org/2000/svg">
<circle cx="25" cy="25" r="24.5" stroke="#32872F"/>
<mask id="mask0_201_71107" style="mask-type:luminance" maskUnits="userSpaceOnUse" x="10" y="11" width="31" height="31">
<path d="M10 11H40.5908V41.5908H10V11Z" fill="white"/>
</mask>
<g mask="url(#mask0_201_71107)">
<path d="M14.376 20.1572L12.5961 19.0848C12.0261 18.7555 11.8307 18.0266 12.1599 17.456C12.381 17.0736 12.7813 16.8598 13.193 16.8598C13.3955 16.8598 13.6004 16.9117 13.7881 17.0199L14.376 17.3742" stroke="#32872F" stroke-miterlimit="10" stroke-linecap="round" stroke-linejoin="round"/>
<path d="M14.376 15.1623V13.6471C14.376 12.4325 15.3612 11.4478 16.5759 11.4478H25.746C26.9606 11.4478 27.9453 12.4325 27.9453 13.6471V31.4346C27.9453 32.6499 26.9606 33.6345 25.746 33.6345H16.5759C15.3612 33.6345 14.376 32.6499 14.376 31.4346V29.1212" stroke="#32872F" stroke-miterlimit="10" stroke-linecap="round" stroke-linejoin="round"/>
<path d="M14.376 21.0957V17.3746" stroke="#32872F" stroke-miterlimit="10" stroke-linecap="round" stroke-linejoin="round"/>
<path d="M15.9502 29.1084V31.4057C15.9502 31.6244 16.0583 31.8186 16.2232 31.9375C16.3308 32.0151 16.4628 32.0605 16.605 32.0605H25.7166C26.0774 32.0605 26.3714 31.7666 26.3714 31.4057V13.6768C26.3714 13.3159 26.0774 13.0225 25.7166 13.0225H23.5806L23.384 13.6732C23.3534 13.7744 23.2911 13.8631 23.2062 13.9262C23.1213 13.9892 23.0183 14.0233 22.9126 14.0233H19.409C19.1921 14.0233 19.0003 13.8811 18.9376 13.6732L18.7404 13.0225H16.605C16.2442 13.0225 15.9502 13.3159 15.9502 13.6768V21.1088" stroke="#32872F" stroke-miterlimit="10" stroke-linecap="round" stroke-linejoin="round"/>
<path d="M20.229 33.6347L24.6527 35.883C25.2871 36.2055 25.9726 36.4156 26.6788 36.5038L29.4833 36.8545C30.2051 36.9447 30.9047 37.1622 31.5506 37.4968L38.5913 41.1426" stroke="#32872F" stroke-miterlimit="10" stroke-linecap="round" stroke-linejoin="round"/>
<path d="M27.9453 25.6443V18.7566C27.9453 18.4142 28.0845 18.1035 28.3092 17.8789C28.5338 17.6542 28.8439 17.5156 29.1869 17.5156C29.8722 17.5156 30.4278 18.0713 30.4278 18.7566V21.5342C30.4278 21.8186 30.4912 22.0995 30.6124 22.3564L31.9938 25.2834C32.476 26.1999 32.5112 27.4517 32.5859 28.4668L38.5912 32.1191" stroke="#32872F" stroke-miterlimit="10" stroke-linecap="round" stroke-linejoin="round"/>
<path d="M15.1528 29.3474C14.3753 29.3474 13.7451 28.7172 13.7451 27.9398C13.7451 27.1623 14.3753 26.5321 15.1528 26.5321C15.9302 26.5321 16.5604 27.1623 16.5604 27.9398C16.5604 28.7172 15.9302 29.3474 15.1528 29.3474Z" stroke="#32872F" stroke-miterlimit="10" stroke-linecap="round" stroke-linejoin="round"/>
<path d="M15.1528 26.5159C14.3753 26.5159 13.7451 25.8857 13.7451 25.1082C13.7451 24.3308 14.3753 23.7006 15.1528 23.7006C15.9302 23.7006 16.5604 24.3308 16.5604 25.1082C16.5604 25.8857 15.9302 26.5159 15.1528 26.5159Z" stroke="#32872F" stroke-miterlimit="10" stroke-linecap="round" stroke-linejoin="round"/>
<path d="M15.1528 23.6863C14.3753 23.6863 13.7451 23.0561 13.7451 22.2786C13.7451 21.5012 14.3753 20.871 15.1528 20.871C15.9302 20.871 16.5604 21.5012 16.5604 22.2786C16.5604 23.0561 15.9302 23.6863 15.1528 23.6863Z" stroke="#32872F" stroke-miterlimit="10" stroke-linecap="round" stroke-linejoin="round"/>
<path d="M32.5859 28.4672V30.0303" stroke="#32872F" stroke-miterlimit="10" stroke-linecap="round" stroke-linejoin="round"/>
<path d="M22.0724 20.1446L15.9502 23.7778" stroke="#32872F" stroke-miterlimit="10" stroke-linecap="round" stroke-linejoin="round"/>
<path d="M15.9502 26.7817L26.3714 20.5973V17.5937L23.8785 19.0732" stroke="#32872F" stroke-miterlimit="10" stroke-linecap="round" stroke-linejoin="round"/>
<path d="M23.3584 30.4299H24.0568" stroke="#32872F" stroke-miterlimit="10" stroke-linecap="round" stroke-linejoin="round"/>
<path d="M18.4155 30.4299H19.1139" stroke="#32872F" stroke-miterlimit="10" stroke-linecap="round" stroke-linejoin="round"/>
</g>
</svg>
