<svg width="30" height="31" viewBox="0 0 30 31" fill="none" xmlns="http://www.w3.org/2000/svg">
<circle cx="15" cy="15.5" r="14.25" stroke="black" stroke-width="1.5"/>
<path d="M13.456 19.2544C13.456 18.6784 13.52 18.1504 13.648 17.6704C13.792 17.1904 14.008 16.7584 14.296 16.3744C14.6 15.9744 14.992 15.6224 15.472 15.3184C15.76 15.1264 16.088 14.9264 16.456 14.7184C16.84 14.5104 17.2 14.2704 17.536 13.9984C17.888 13.7104 18.176 13.3744 18.4 12.9904C18.624 12.5904 18.736 12.1184 18.736 11.5744C18.736 10.9664 18.592 10.4624 18.304 10.0624C18.032 9.64636 17.672 9.33436 17.224 9.12636C16.776 8.91836 16.296 8.81436 15.784 8.81436C15.256 8.81436 14.76 8.91836 14.296 9.12636C13.832 9.33436 13.424 9.61436 13.072 9.96636C12.736 10.3024 12.456 10.6784 12.232 11.0944L10.816 10.1584C11.104 9.50236 11.504 8.94236 12.016 8.47836C12.544 8.01436 13.136 7.66236 13.792 7.42236C14.448 7.18236 15.128 7.06236 15.832 7.06236C16.424 7.06236 17 7.15836 17.56 7.35036C18.136 7.52636 18.648 7.80636 19.096 8.19036C19.56 8.57436 19.928 9.05436 20.2 9.63036C20.472 10.2064 20.608 10.8864 20.608 11.6704C20.608 12.2784 20.528 12.7984 20.368 13.2304C20.208 13.6624 19.984 14.0384 19.696 14.3584C19.424 14.6784 19.104 14.9584 18.736 15.1984C18.368 15.4384 17.984 15.6704 17.584 15.8944C17.2 16.1024 16.824 16.3344 16.456 16.5904C16.104 16.8464 15.808 17.1824 15.568 17.5984C15.344 17.9984 15.232 18.5504 15.232 19.2544H13.456ZM13.504 24.3184V21.5344H15.28V24.3184H13.504Z" fill="black"/>
</svg>
