<svg viewBox="0 0 50 50" fill="none" xmlns="http://www.w3.org/2000/svg">
<g>
<circle cx="24.6724" cy="24.6724" r="23.9224" stroke-width="1.5"/>
<path d="M25.9207 15.8243L20.773 18.4927C20.3098 18.7328 20.3358 19.4268 20.8156 19.6291L23.8224 20.8964L16.6278 27.2571C16.274 27.5699 16.3813 28.1627 16.8204 28.3214L19.8416 29.4132L12.7239 37.645C12.2818 38.1562 12.844 38.9247 13.4383 38.6215L29.0378 30.6633C29.51 30.4225 29.4779 29.714 28.9861 29.52L26.1226 28.3907L33.1842 21.6587C33.5106 21.3476 33.4116 20.7899 32.9996 20.6196L30.1206 19.4294L36.4182 11.7221C36.8416 11.204 36.2752 10.4568 35.6893 10.7605L30.3414 13.5327" stroke-width="1.2335" stroke-miterlimit="10" stroke-linecap="round" stroke-linejoin="round"/>
</g>
</svg>
