<svg viewBox="0 0 51 50" fill="none" xmlns="http://www.w3.org/2000/svg">
<g>
<circle cx="25.4947" cy="24.6724" r="23.9224" stroke-width="1.5"/>
<path d="M27.8575 37.3527C27.9515 37.3775 28.0453 37.4038 28.1386 37.4316C28.8528 37.6448 29.6225 37.7331 30.4215 37.6707C33.4104 37.4373 35.8131 35.0599 36.0256 32.1277C36.219 29.4585 34.6298 27.1291 32.3075 26.164C31.8975 25.9936 31.592 25.6389 31.5075 25.2103C30.9624 22.444 28.4807 20.3545 25.4997 20.3545C22.5188 20.3545 20.0372 22.444 19.492 25.2103C19.4075 25.6389 19.1019 25.9936 18.6919 26.164C16.3696 27.1291 14.7805 29.4585 14.9739 32.1278C15.1864 35.0599 17.5892 37.4374 20.5781 37.6707C21.377 37.7331 22.1466 37.6447 22.8609 37.4316C22.9542 37.4038 23.0479 37.3774 23.142 37.3527" stroke-width="1.2335" stroke-miterlimit="10" stroke-linecap="round" stroke-linejoin="round"/>
<path d="M37.1418 24.5237C38.7204 24.5237 40 22.9556 40 21.0211C40 19.0867 38.7204 17.5186 37.1418 17.5186C35.5633 17.5186 34.2837 19.0867 34.2837 21.0211C34.2837 22.9556 35.5633 24.5237 37.1418 24.5237Z" stroke-width="1.2335" stroke-miterlimit="10" stroke-linecap="round" stroke-linejoin="round"/>
<path d="M30.1169 17.6956C31.6955 17.6956 32.9751 16.1275 32.9751 14.193C32.9751 12.2586 31.6955 10.6904 30.1169 10.6904C28.5384 10.6904 27.2588 12.2586 27.2588 14.193C27.2588 16.1275 28.5384 17.6956 30.1169 17.6956Z" stroke-width="1.2335" stroke-miterlimit="10" stroke-linecap="round" stroke-linejoin="round"/>
<path d="M20.8835 17.6956C22.4621 17.6956 23.7417 16.1275 23.7417 14.193C23.7417 12.2586 22.4621 10.6904 20.8835 10.6904C19.305 10.6904 18.0254 12.2586 18.0254 14.193C18.0254 16.1275 19.305 17.6956 20.8835 17.6956Z" stroke-width="1.2335" stroke-miterlimit="10" stroke-linecap="round" stroke-linejoin="round"/>
<path d="M13.8581 24.5237C15.4367 24.5237 16.7163 22.9556 16.7163 21.0211C16.7163 19.0867 15.4367 17.5186 13.8581 17.5186C12.2796 17.5186 11 19.0867 11 21.0211C11 22.9556 12.2796 24.5237 13.8581 24.5237Z" stroke-width="1.2335" stroke-miterlimit="10" stroke-linecap="round" stroke-linejoin="round"/>
</g>
</svg>
