<svg width="48" height="48" viewBox="0 0 48 48" fill="none" xmlns="http://www.w3.org/2000/svg">
<circle cx="24" cy="24" r="23.5" transform="rotate(-90 24 24)" stroke="white"/>
<path d="M18.051 23.0909L22.7977 18.2147V32.7654C22.7977 33.0928 22.9243 33.4069 23.1497 33.6384C23.3751 33.8699 23.6808 34 23.9995 34C24.3183 34 24.624 33.8699 24.8493 33.6384C25.0747 33.4069 25.2013 33.0928 25.2013 32.7654V18.2147L29.9481 23.0909C30.1735 23.3225 30.4792 23.4526 30.798 23.4526C31.1168 23.4526 31.4225 23.3225 31.6479 23.0909C31.8734 22.8594 32 22.5453 32 22.2178C32 21.8903 31.8734 21.5763 31.6479 21.3447L24.8495 14.3617C24.7378 14.247 24.6053 14.1561 24.4595 14.094C24.3137 14.0319 24.1574 14 23.9995 14C23.8417 14 23.6854 14.0319 23.5395 14.094C23.3937 14.1561 23.2612 14.247 23.1496 14.3617L16.3521 21.3447C16.1266 21.5763 16 21.8903 16 22.2178C16 22.5453 16.1266 22.8594 16.3521 23.0909C16.5775 23.3225 16.8832 23.4526 17.202 23.4526C17.5208 23.4526 17.8255 23.3225 18.051 23.0909Z" fill="white"/>
</svg>
