<svg width="18" height="5" viewBox="0 0 18 5" fill="none" xmlns="http://www.w3.org/2000/svg">
<path d="M11.25 2.75C11.25 1.50736 10.2426 0.5 9 0.5C7.75736 0.5 6.75 1.50736 6.75 2.75C6.75 3.99264 7.75736 5 9 5C10.2426 5 11.25 3.99264 11.25 2.75Z" fill="white"/>
<path d="M18 2.75C18 1.50736 16.9926 0.5 15.75 0.5C14.5074 0.5 13.5 1.50736 13.5 2.75C13.5 3.99264 14.5074 5 15.75 5C16.9926 5 18 3.99264 18 2.75Z" fill="white"/>
<path d="M4.5 2.75C4.5 1.50736 3.49264 0.5 2.25 0.5C1.00736 0.5 -1.52668e-07 1.50736 -9.83506e-08 2.75C-4.40331e-08 3.99264 1.00736 5 2.25 5C3.49264 5 4.5 3.99264 4.5 2.75Z" fill="white"/>
</svg>
