<svg viewBox="0 0 50 50" fill="none" xmlns="http://www.w3.org/2000/svg">
<circle cx="25" cy="25" r="24.5" stroke="#32872F"/>
<path d="M18.3242 12.0018C17.9319 12.0033 17.5559 12.1601 17.2783 12.4381C17.0007 12.7161 16.8439 13.0929 16.842 13.4864V18.755C16.842 18.8831 16.8927 19.006 16.983 19.0965C17.0734 19.1871 17.1959 19.238 17.3236 19.238C17.4514 19.238 17.5739 19.1871 17.6643 19.0965C17.7546 19.006 17.8053 18.8831 17.8053 18.755V13.4845C17.8038 13.4158 17.8163 13.3475 17.8418 13.2837C17.8674 13.2199 17.9055 13.1619 17.954 13.1133C18.0025 13.0647 18.0603 13.0264 18.1239 13.0008C18.1875 12.9752 18.2557 12.9627 18.3242 12.9642H36.5196C36.5881 12.9627 36.6562 12.9752 36.7199 13.0008C36.7835 13.0264 36.8413 13.0647 36.8898 13.1133C36.9382 13.1619 36.9764 13.2199 37.002 13.2837C37.0275 13.3475 37.0399 13.4158 37.0384 13.4845V33.2165H33.7092C33.3178 33.2174 32.9427 33.3734 32.6654 33.6504C32.3881 33.9274 32.2312 34.3031 32.2288 34.6956V38.0339H26.9402C26.8127 38.0339 26.6904 38.0847 26.6002 38.1751C26.5101 38.2656 26.4594 38.3882 26.4594 38.5161C26.4594 38.6439 26.5101 38.7665 26.6002 38.857C26.6904 38.9474 26.8127 38.9982 26.9402 38.9982H33.1904C33.3174 38.9982 33.4407 38.949 33.5314 38.8599L37.8567 34.5173C37.9467 34.4283 37.9982 34.3074 38 34.1807V13.4845C37.9981 13.0914 37.8415 12.7149 37.5643 12.4369C37.2871 12.1589 36.9116 12.0019 36.5196 12L18.3242 12.0018ZM29.8267 14.416C28.6468 14.4165 27.5153 14.8862 26.6803 15.7221C25.8453 16.5581 25.3751 17.6919 25.3727 18.8751C25.3746 20.0584 25.8443 21.1926 26.6789 22.0292C27.5135 22.8657 28.6448 23.3363 29.8249 23.3378C31.0046 23.3358 32.1355 22.8651 32.9697 22.0286C33.8039 21.1921 34.2734 20.0581 34.2753 18.8751C34.2729 17.6926 33.8031 16.5592 32.9689 15.7234C32.1347 14.8876 31.006 14.4174 29.8267 14.416ZM29.8267 15.3766C30.2849 15.3761 30.7387 15.4663 31.1621 15.642C31.5855 15.8176 31.9702 16.0753 32.2941 16.4003C32.618 16.7253 32.8748 17.1112 33.0498 17.5358C33.2248 17.9605 33.3145 18.4156 33.3137 18.8751C33.3137 20.8126 31.7589 22.3736 29.8267 22.3736C27.8945 22.3736 26.3379 20.8126 26.3379 18.8751C26.3371 18.4154 26.4269 17.9602 26.602 17.5354C26.777 17.1106 27.034 16.7247 27.3581 16.3997C27.6822 16.0747 28.0671 15.817 28.4907 15.6414C28.9143 15.4659 29.3683 15.3759 29.8267 15.3766ZM31.4414 17.4542L29.6761 19.5828L28.6148 18.4948C28.5246 18.4087 28.4047 18.3609 28.2802 18.3616C28.1556 18.3624 28.0362 18.4115 27.9471 18.4988C27.858 18.586 27.8061 18.7045 27.8024 18.8293C27.7987 18.9542 27.8434 19.0756 27.9272 19.168L29.3604 20.6416C29.56 20.8454 29.892 20.8308 30.0753 20.6125L32.1834 18.0746C32.2239 18.0257 32.2542 17.9692 32.2728 17.9085C32.2914 17.8478 32.2979 17.784 32.2918 17.7208C32.2858 17.6575 32.2673 17.5961 32.2375 17.5401C32.2077 17.484 32.1671 17.4345 32.1181 17.3942C32.0198 17.3136 31.894 17.2748 31.7676 17.286C31.6411 17.2972 31.5241 17.3576 31.4414 17.4542ZM18.2299 20.285C16.4374 20.285 14.9406 21.664 14.9406 23.396C14.9406 24.6495 15.3361 25.721 15.7026 26.9782C16.1376 28.3757 16.3793 29.8264 16.421 31.2899H15.8804C15.0622 31.2899 14.4417 32.0139 14.4417 32.8399V33.3129H12.7453C11.7584 33.3129 11 34.1934 11 35.2068V36.6149C11 36.8823 11.2177 37.097 11.4826 37.097H11.9217V38.0976C11.9217 38.607 12.3607 39 12.8524 39H23.6056C23.8476 39.0015 24.0805 38.9079 24.2545 38.7392C24.4285 38.5705 24.5296 38.3402 24.5363 38.0976V37.097H24.9753C25.1025 37.0965 25.2244 37.0455 25.3141 36.9552C25.4039 36.8648 25.4543 36.7424 25.4543 36.6149V35.2068C25.4543 34.1934 24.6959 33.3147 23.709 33.3147H22.1306V32.8399C22.1306 32.0139 21.5083 31.2899 20.69 31.2899H20.0423C20.0835 29.8268 20.3233 28.3762 20.7553 26.9782C21.1218 25.7229 21.5155 24.6495 21.5155 23.3942C21.5155 21.6659 20.0224 20.2832 18.2281 20.2832L18.2299 20.285ZM18.2299 21.2492C19.5398 21.2492 20.5594 22.2226 20.5594 23.396C20.5594 24.4403 20.2111 25.419 19.8355 26.7071C19.4155 28.1998 19.1832 29.7393 19.1443 31.2899H17.3173C17.278 29.7398 17.0452 28.2009 16.6242 26.7089C16.2487 25.419 15.9003 24.4403 15.9003 23.396C15.9003 22.2226 16.9218 21.2492 18.2299 21.2492ZM25.9786 25.0079C25.8478 25.0079 25.7222 25.06 25.6297 25.1528C25.5371 25.2456 25.4852 25.3715 25.4852 25.5027C25.4852 25.634 25.5371 25.7598 25.6297 25.8526C25.7222 25.9454 25.8478 25.9976 25.9786 25.9976C26.1095 25.9976 26.235 25.9454 26.3276 25.8526C26.4201 25.7598 26.4721 25.634 26.4721 25.5027C26.4721 25.3715 26.4201 25.2456 26.3276 25.1528C26.235 25.06 26.1095 25.0079 25.9786 25.0079ZM27.9018 25.0224C27.7742 25.0224 27.652 25.0732 27.5618 25.1636C27.4716 25.254 27.421 25.3767 27.421 25.5045C27.421 25.6324 27.4716 25.755 27.5618 25.8454C27.652 25.9359 27.7742 25.9866 27.9018 25.9866H34.6309C34.7584 25.9866 34.8807 25.9359 34.9709 25.8454C35.061 25.755 35.1117 25.6324 35.1117 25.5045C35.1117 25.3767 35.061 25.254 34.9709 25.1636C34.8807 25.0732 34.7584 25.0224 34.6309 25.0224H27.9018ZM23.0939 27.4184C23.0291 27.4184 22.965 27.4312 22.9051 27.4561C22.8452 27.481 22.7908 27.5174 22.745 27.5634C22.6992 27.6093 22.6628 27.6639 22.638 27.7239C22.6132 27.7839 22.6005 27.8483 22.6005 27.9133C22.6005 27.9783 22.6132 28.0426 22.638 28.1026C22.6628 28.1627 22.6992 28.2172 22.745 28.2632C22.7908 28.3091 22.8452 28.3456 22.9051 28.3704C22.965 28.3953 23.0291 28.4081 23.0939 28.4081C23.2248 28.4081 23.3503 28.356 23.4429 28.2632C23.5354 28.1704 23.5874 28.0445 23.5874 27.9133C23.5874 27.782 23.5354 27.6562 23.4429 27.5634C23.3503 27.4706 23.2248 27.4184 23.0939 27.4184ZM25.0171 27.4293C24.8893 27.4293 24.7668 27.4802 24.6765 27.5708C24.5861 27.6614 24.5354 27.7843 24.5354 27.9124C24.5354 28.0405 24.5861 28.1633 24.6765 28.2539C24.7668 28.3445 24.8893 28.3954 25.0171 28.3954H34.6309C34.7584 28.3954 34.8807 28.3446 34.9709 28.2542C35.061 28.1638 35.1117 28.0411 35.1117 27.9133C35.1117 27.7854 35.061 27.6628 34.9709 27.5724C34.8807 27.482 34.7584 27.4312 34.6309 27.4312L25.0171 27.4293ZM25.9786 29.8308C25.9114 29.8267 25.8441 29.8364 25.7808 29.8594C25.7175 29.8824 25.6595 29.9181 25.6105 29.9644C25.5615 30.0106 25.5224 30.0665 25.4957 30.1285C25.469 30.1904 25.4552 30.2572 25.4552 30.3247C25.4552 30.3922 25.469 30.459 25.4957 30.521C25.5224 30.583 25.5615 30.6388 25.6105 30.6851C25.6595 30.7314 25.7175 30.7671 25.7808 30.79C25.8441 30.813 25.9114 30.8228 25.9786 30.8187C26.1095 30.8187 26.235 30.7665 26.3276 30.6737C26.4201 30.5809 26.4721 30.4551 26.4721 30.3238C26.4721 30.1926 26.4201 30.0667 26.3276 29.9739C26.235 29.8811 26.1095 29.829 25.9786 29.829V29.8308ZM27.9018 29.8399C27.7742 29.8399 27.652 29.8907 27.5618 29.9811C27.4716 30.0715 27.421 30.1941 27.421 30.322C27.421 30.4499 27.4716 30.5725 27.5618 30.6629C27.652 30.7533 27.7742 30.8041 27.9018 30.8041H34.6309C34.7584 30.8041 34.8807 30.7533 34.9709 30.6629C35.061 30.5725 35.1117 30.4499 35.1117 30.322C35.1117 30.1941 35.061 30.0715 34.9709 29.9811C34.8807 29.8907 34.7584 29.8399 34.6309 29.8399H27.9018ZM15.8804 32.2541H20.6918C20.9368 32.2541 21.169 32.4797 21.169 32.8399V33.3129H18.2879C18.1604 33.3129 18.0381 33.3637 17.948 33.4541C17.8578 33.5445 17.8071 33.6671 17.8071 33.795C17.8071 33.9229 17.8578 34.0455 17.948 34.1359C18.0381 34.2263 18.1604 34.2771 18.2879 34.2771H23.7108C24.1244 34.2771 24.4946 34.6592 24.4946 35.2068V36.131H11.9652V35.2068C11.9652 34.6592 12.3353 34.2789 12.749 34.2789H16.3666C16.4941 34.2789 16.6164 34.2281 16.7066 34.1377C16.7967 34.0473 16.8474 33.9247 16.8474 33.7968C16.8474 33.669 16.7967 33.5463 16.7066 33.4559C16.6164 33.3655 16.4941 33.3147 16.3666 33.3147H15.4051V32.8399C15.4051 32.4797 15.6373 32.2541 15.8822 32.2541H15.8804ZM33.7092 34.1825H36.8389L33.1922 37.8356V34.6974C33.1922 34.4008 33.4153 34.1825 33.7111 34.1825H33.7092ZM12.885 37.097H23.5765V38.0358H12.885V37.097Z" fill="#32872F"/>
</svg>
