<svg width="30" height="31" viewBox="0 0 30 31" fill="none" xmlns="http://www.w3.org/2000/svg">
<circle cx="15" cy="15.5" r="14.25" stroke="white" stroke-width="1.5"/>
<path d="M22.1409 13.8775L11.5522 7.24632C11.2944 7.08502 11.0026 7.00013 10.7057 7C10.4051 7.00011 10.1098 7.08716 9.84972 7.25236C9.32558 7.5855 9 8.20484 9 8.86877V22.1312C9 22.795 9.32558 23.4144 9.84958 23.7475C10.1097 23.9128 10.405 23.9999 10.7056 24C11.0019 24 11.2947 23.9148 11.5521 23.7536L22.1407 17.1224C22.6708 16.7904 23 16.1688 23 15.4999C23 14.8311 22.6709 14.2095 22.1409 13.8775ZM17.5524 12.3095L16.0986 14.5282L12.621 9.22117L17.5524 12.3095ZM10.639 22.8601C10.5444 22.8501 10.4516 22.8199 10.3688 22.7672C10.2673 22.7024 10.183 22.6096 10.1243 22.498C10.0657 22.3864 10.0347 22.2599 10.0345 22.1312V8.86869C10.0347 8.73991 10.0657 8.61344 10.1243 8.50186C10.183 8.39027 10.2673 8.29746 10.3689 8.23265C10.4515 8.18063 10.5432 8.14843 10.638 8.1382L15.4618 15.4999L10.639 22.8601ZM12.621 21.7788L16.0986 16.4717L17.5524 18.6903L12.621 21.7788ZM21.6275 16.1383L18.4553 18.1249L16.7353 15.4999L18.4553 12.875L21.6275 14.8615C21.836 14.9922 21.9656 15.2368 21.9656 15.4999C21.9656 15.7631 21.8361 16.0077 21.6275 16.1383Z" fill="white"/>
</svg>
