<svg width="14" height="14" viewBox="0 0 14 14" fill="none" xmlns="http://www.w3.org/2000/svg">
<g clip-path="url(#clip0_201_56062)">
<path d="M7 9.45292V13.9854L2.709 10.4778H1.16667C0.52325 10.4778 0 9.95458 0 9.31117V4.6445C0 4.046 0.452667 3.55192 1.03308 3.48542L7 9.45233V9.45292ZM8.16667 11.0618V12.2284H8.75C9.06675 12.2284 9.38117 12.1998 9.69033 12.1438L8.60825 11.0618H8.16667ZM11.9706 11.1242L13.9749 13.1285L13.1501 13.9533L0.0250833 0.828333L0.849917 0.0035L3.6015 2.75508L7 0V6.15358L9.43542 8.589C10.073 8.31833 10.5 7.68892 10.5 6.97842C10.5 6.01358 9.71483 5.22842 8.75 5.22842H8.16667V4.06175H8.75C10.3582 4.06175 11.6667 5.37017 11.6667 6.97842C11.6667 8.0045 11.1329 8.92967 10.2982 9.45175L11.1376 10.2912C12.1928 9.52817 12.8333 8.29383 12.8333 6.97842C12.8333 4.72675 11.0011 2.89508 8.75 2.89508H8.16667V1.72842H8.75C11.6451 1.72842 14 4.08392 14 6.97842C14 8.60592 13.237 10.1372 11.9706 11.1242Z" fill="white"/>
</g>
<defs>
<clipPath id="clip0_201_56062">
<rect width="14" height="14" fill="white"/>
</clipPath>
</defs>
</svg>
