<svg width="30" height="31" viewBox="0 0 30 31" fill="none" xmlns="http://www.w3.org/2000/svg">
<circle cx="15" cy="15.5" r="14.25" stroke="white" stroke-width="1.5"/>
<path d="M17.3678 8.96348C17.2825 8.62801 17.0783 8.34756 16.7928 8.17395C16.2036 7.81549 15.4473 8.02889 15.1069 8.6499L14.917 8.9965L14.727 8.64985C14.3867 8.029 13.6305 7.81549 13.0411 8.1739C12.4518 8.53241 12.2492 9.32916 12.5894 9.95012L13.4919 11.597L10.1619 17.6737H7.73416C7.05364 17.6737 6.5 18.257 6.5 18.9739C6.5 19.6909 7.05364 20.2742 7.73416 20.2742H18.1069L16.6817 17.6737H13.0121L17.2445 9.95017C17.4093 9.64939 17.4532 9.29894 17.3678 8.96348Z" fill="white" stroke="#4799E0" stroke-width="0.5"/>
<path d="M22.9326 17.0556H20.3816L17.4815 12.0923L15.9841 14.6551L20.4869 22.3613C20.6601 22.6578 20.9397 22.8698 21.2744 22.9585C21.3861 22.988 21.4994 23.0027 21.6121 23.0027C21.8368 23.0027 22.0586 22.9445 22.2585 22.8304C22.8777 22.4771 23.0906 21.6919 22.7331 21.08L21.879 19.6184H22.9326C23.6476 19.6184 24.2294 19.0436 24.2294 18.337C24.2294 17.6304 23.6476 17.0556 22.9326 17.0556ZM8.29229 20.6435L8.03724 21.08C7.67973 21.6919 7.89267 22.4772 8.51192 22.8304C8.70829 22.9428 8.93122 23.0019 9.15815 23.0018C9.60664 23.0018 10.0435 22.772 10.2834 22.3614L11.2871 20.6435H8.29229Z" fill="white" stroke="#4799E0" stroke-width="0.5"/>
</svg>
