<svg width="76" height="59" viewBox="0 0 76 59" fill="none" xmlns="http://www.w3.org/2000/svg">
<path d="M0.869539 13L2.96954 3.06H10.3055L8.20554 13H7.49154L9.46554 3.704H3.54354L1.58354 13H0.869539ZM12.098 5.72H12.728L12.42 7.176C12.8026 6.70933 13.26 6.33133 13.792 6.042C14.324 5.74333 14.8513 5.594 15.374 5.594C15.9246 5.594 16.3913 5.73867 16.774 6.028C17.1566 6.31733 17.4506 6.69533 17.656 7.162C17.8613 7.62867 17.964 8.13267 17.964 8.674C17.964 9.234 17.8566 9.78467 17.642 10.326C17.4273 10.858 17.1333 11.334 16.76 11.754C16.3866 12.174 15.9526 12.51 15.458 12.762C14.9726 13.014 14.4546 13.14 13.904 13.14C13.316 13.14 12.826 12.9767 12.434 12.65C12.042 12.314 11.7573 11.908 11.58 11.432L10.614 15.982H9.91398L12.098 5.72ZM13.876 12.51C14.3333 12.51 14.7626 12.4027 15.164 12.188C15.5746 11.964 15.934 11.6747 16.242 11.32C16.55 10.956 16.7926 10.5547 16.97 10.116C17.1473 9.668 17.236 9.22 17.236 8.772C17.236 8.31467 17.1473 7.89467 16.97 7.512C16.802 7.12 16.5546 6.80733 16.228 6.574C15.9106 6.34067 15.5326 6.224 15.094 6.224C14.8606 6.224 14.5946 6.27533 14.296 6.378C14.0066 6.48067 13.722 6.62533 13.442 6.812C13.162 6.99867 12.9146 7.21333 12.7 7.456C12.4946 7.68933 12.35 7.932 12.266 8.184L11.748 10.578C11.8226 10.9327 11.958 11.2593 12.154 11.558C12.35 11.8473 12.5926 12.0807 12.882 12.258C13.1806 12.426 13.512 12.51 13.876 12.51ZM22.2188 13.14C21.5468 13.14 20.9634 12.9673 20.4688 12.622C19.9834 12.2767 19.6241 11.8193 19.3908 11.25C19.1668 10.6713 19.1014 10.046 19.1948 9.374C19.2694 8.86067 19.4281 8.38 19.6708 7.932C19.9134 7.47467 20.2214 7.07333 20.5948 6.728C20.9681 6.37333 21.3834 6.098 21.8408 5.902C22.3074 5.69667 22.7881 5.594 23.2828 5.594C23.9548 5.594 24.5334 5.77133 25.0188 6.126C25.5134 6.47133 25.8774 6.92867 26.1108 7.498C26.3441 8.06733 26.4141 8.69267 26.3208 9.374C26.2554 9.878 26.1014 10.3587 25.8588 10.816C25.6254 11.2733 25.3268 11.6793 24.9628 12.034C24.5988 12.3793 24.1834 12.65 23.7168 12.846C23.2501 13.042 22.7508 13.14 22.2188 13.14ZM22.3028 12.538C22.6948 12.538 23.0728 12.454 23.4368 12.286C23.8101 12.1087 24.1461 11.8753 24.4448 11.586C24.7528 11.2873 25.0048 10.9467 25.2008 10.564C25.4061 10.1813 25.5368 9.78 25.5928 9.36C25.6861 8.78133 25.6348 8.254 25.4388 7.778C25.2428 7.302 24.9534 6.91933 24.5708 6.63C24.1881 6.34067 23.7308 6.196 23.1988 6.196C22.8161 6.196 22.4381 6.28 22.0648 6.448C21.7008 6.616 21.3694 6.84933 21.0708 7.148C20.7721 7.43733 20.5201 7.778 20.3148 8.17C20.1094 8.55267 19.9788 8.96333 19.9228 9.402C19.8481 9.97133 19.9041 10.4987 20.0908 10.984C20.2774 11.46 20.5621 11.838 20.9448 12.118C21.3368 12.398 21.7894 12.538 22.3028 12.538ZM27.2673 13L28.8073 5.72H29.5073L28.8073 8.996H29.9973C30.5666 8.66 31.0893 8.20733 31.5653 7.638C32.0413 7.06867 32.5173 6.42933 32.9933 5.72H33.7493C33.2173 6.532 32.6993 7.23667 32.1953 7.834C31.6913 8.422 31.164 8.90267 30.6133 9.276L32.6573 13H31.8733L29.9973 9.57H28.6813L27.9533 13H27.2673ZM35.4632 5.72H36.0932L35.7852 7.176C36.1679 6.70933 36.6252 6.33133 37.1572 6.042C37.6892 5.74333 38.2165 5.594 38.7392 5.594C39.2899 5.594 39.7565 5.73867 40.1392 6.028C40.5219 6.31733 40.8159 6.69533 41.0212 7.162C41.2265 7.62867 41.3292 8.13267 41.3292 8.674C41.3292 9.234 41.2219 9.78467 41.0072 10.326C40.7925 10.858 40.4985 11.334 40.1252 11.754C39.7519 12.174 39.3179 12.51 38.8232 12.762C38.3379 13.014 37.8199 13.14 37.2692 13.14C36.6812 13.14 36.1912 12.9767 35.7992 12.65C35.4072 12.314 35.1225 11.908 34.9452 11.432L33.9792 15.982H33.2792L35.4632 5.72ZM37.2412 12.51C37.6985 12.51 38.1279 12.4027 38.5292 12.188C38.9399 11.964 39.2992 11.6747 39.6072 11.32C39.9152 10.956 40.1579 10.5547 40.3352 10.116C40.5125 9.668 40.6012 9.22 40.6012 8.772C40.6012 8.31467 40.5125 7.89467 40.3352 7.512C40.1672 7.12 39.9199 6.80733 39.5932 6.574C39.2759 6.34067 38.8979 6.224 38.4592 6.224C38.2259 6.224 37.9599 6.27533 37.6612 6.378C37.3719 6.48067 37.0872 6.62533 36.8072 6.812C36.5272 6.99867 36.2799 7.21333 36.0652 7.456C35.8599 7.68933 35.7152 7.932 35.6312 8.184L35.1132 10.578C35.1879 10.9327 35.3232 11.2593 35.5192 11.558C35.7152 11.8473 35.9579 12.0807 36.2472 12.258C36.5459 12.426 36.8772 12.51 37.2412 12.51ZM41.2353 15.562C41.6179 15.4967 41.9306 15.4033 42.1733 15.282C42.4159 15.1607 42.6353 14.9833 42.8313 14.75C43.0366 14.526 43.2653 14.218 43.5173 13.826L44.0213 13.07L42.4673 5.72H43.1953L44.5113 12.314L45.1833 11.25C45.6033 10.578 45.9533 9.99 46.2333 9.486C46.5226 8.982 46.7699 8.52467 46.9753 8.114C47.1806 7.70333 47.3486 7.30667 47.4793 6.924C47.6193 6.54133 47.7499 6.14 47.8713 5.72H48.5713C48.4499 6.168 48.3146 6.588 48.1653 6.98C48.0253 7.372 47.8479 7.78267 47.6333 8.212C47.4279 8.632 47.1666 9.11267 46.8493 9.654C46.5413 10.186 46.1539 10.8207 45.6873 11.558L44.5393 13.364C44.2126 13.8867 43.9186 14.316 43.6573 14.652C43.4053 14.9973 43.1579 15.2727 42.9153 15.478C42.6819 15.6927 42.4346 15.8467 42.1733 15.94C41.9213 16.0427 41.6366 16.108 41.3193 16.136L41.2353 15.562ZM50.0234 5.72H50.6814L50.3034 7.456C50.7141 6.868 51.1854 6.41067 51.7174 6.084C52.2588 5.75733 52.8001 5.594 53.3414 5.594C53.7148 5.594 54.0274 5.67333 54.2794 5.832C54.5314 5.99067 54.7181 6.21933 54.8394 6.518C54.9701 6.81667 55.0214 7.18067 54.9934 7.61C55.2548 7.17133 55.5534 6.80267 55.8894 6.504C56.2254 6.20533 56.5848 5.98133 56.9674 5.832C57.3594 5.67333 57.7468 5.594 58.1294 5.594C58.5028 5.594 58.8061 5.66867 59.0394 5.818C59.2728 5.958 59.4454 6.16333 59.5574 6.434C59.6694 6.69533 59.7254 7.01733 59.7254 7.4C59.7254 7.60533 59.7114 7.82467 59.6834 8.058C59.6554 8.29133 59.6134 8.54333 59.5574 8.814L58.6614 13H57.9614L58.8294 8.94C58.9228 8.45467 58.9694 8.03933 58.9694 7.694C58.9694 7.20867 58.8668 6.84467 58.6614 6.602C58.4654 6.35933 58.1668 6.238 57.7654 6.238C57.3921 6.238 57.0234 6.336 56.6594 6.532C56.2954 6.71867 55.9594 6.98 55.6514 7.316C55.3434 7.652 55.0821 8.04867 54.8674 8.506L53.9294 13H53.2294L54.0834 8.94C54.1394 8.688 54.1768 8.45933 54.1954 8.254C54.2234 8.03933 54.2374 7.84333 54.2374 7.666C54.2374 7.18067 54.1394 6.82133 53.9434 6.588C53.7474 6.35467 53.4488 6.238 53.0474 6.238C52.4874 6.238 51.9414 6.448 51.4094 6.868C50.8868 7.27867 50.4621 7.82 50.1354 8.492L49.1834 13H48.4834L50.0234 5.72ZM60.8318 13L62.3718 5.72H63.0718L62.3718 8.996H63.5618C64.1311 8.66 64.6538 8.20733 65.1298 7.638C65.6058 7.06867 66.0818 6.42933 66.5578 5.72H67.3138C66.7818 6.532 66.2638 7.23667 65.7598 7.834C65.2558 8.422 64.7284 8.90267 64.1778 9.276L66.2218 13H65.4378L63.5618 9.57H62.2458L61.5178 13H60.8318ZM70.219 13.14C69.687 13.14 69.225 13 68.833 12.72C68.4503 12.4307 68.1516 12.0527 67.937 11.586C67.7316 11.1193 67.629 10.6153 67.629 10.074C67.629 9.50467 67.741 8.954 67.965 8.422C68.189 7.89 68.4876 7.414 68.861 6.994C69.2436 6.56467 69.6776 6.224 70.163 5.972C70.6483 5.72 71.157 5.594 71.689 5.594C72.2956 5.594 72.795 5.762 73.187 6.098C73.579 6.434 73.859 6.83533 74.027 7.302L74.363 5.72H75.077L73.733 11.992C73.7236 12.02 73.7143 12.048 73.705 12.076C73.705 12.104 73.705 12.132 73.705 12.16C73.705 12.3 73.7843 12.37 73.943 12.37L73.803 13C73.747 13 73.6956 13.0047 73.649 13.014C73.6023 13.0233 73.5603 13.0233 73.523 13.014C73.355 13.0047 73.229 12.9533 73.145 12.86C73.061 12.7667 73.019 12.6547 73.019 12.524C73.019 12.4773 73.0236 12.426 73.033 12.37C73.0423 12.314 73.0563 12.2253 73.075 12.104C73.103 11.9733 73.1403 11.7867 73.187 11.544C72.8136 12.0293 72.3563 12.4167 71.815 12.706C71.283 12.9953 70.751 13.14 70.219 13.14ZM70.471 12.51C70.7323 12.51 71.0076 12.4587 71.297 12.356C71.5956 12.2533 71.8803 12.1133 72.151 11.936C72.431 11.7493 72.6736 11.5393 72.879 11.306C73.0936 11.0633 73.2476 10.8113 73.341 10.55L73.845 8.156C73.7983 7.81067 73.677 7.49333 73.481 7.204C73.285 6.91467 73.033 6.68133 72.725 6.504C72.4263 6.31733 72.0903 6.224 71.717 6.224C71.2783 6.224 70.8536 6.336 70.443 6.56C70.0416 6.784 69.6823 7.078 69.365 7.442C69.057 7.806 68.8096 8.212 68.623 8.66C68.4456 9.09867 68.357 9.542 68.357 9.99C68.357 10.4473 68.4456 10.8673 68.623 11.25C68.8096 11.6233 69.0616 11.9267 69.379 12.16C69.6963 12.3933 70.0603 12.51 70.471 12.51Z" fill="white"/>
<path d="M16.6464 21.6464C16.4512 21.8417 16.4512 22.1583 16.6464 22.3536L19.8284 25.5355C20.0237 25.7308 20.3403 25.7308 20.5355 25.5355C20.7308 25.3403 20.7308 25.0237 20.5355 24.8284L17.7071 22L20.5355 19.1716C20.7308 18.9763 20.7308 18.6597 20.5355 18.4645C20.3403 18.2692 20.0237 18.2692 19.8284 18.4645L16.6464 21.6464ZM59.3536 22.3536C59.5488 22.1583 59.5488 21.8417 59.3536 21.6464L56.1716 18.4645C55.9763 18.2692 55.6597 18.2692 55.4645 18.4645C55.2692 18.6597 55.2692 18.9763 55.4645 19.1716L58.2929 22L55.4645 24.8284C55.2692 25.0237 55.2692 25.3403 55.4645 25.5355C55.6597 25.7308 55.9763 25.7308 56.1716 25.5355L59.3536 22.3536ZM17 22.5H59V21.5H17V22.5Z" fill="white"/>
<path d="M46.8476 47.4105V47.4095L46.8534 41.8998C46.8534 41.8997 46.8534 41.8997 46.8534 41.8996C46.8539 41.1092 46.5074 40.5033 45.9461 40.1813C45.3851 39.8596 44.6916 39.8588 44.1394 40.1743L44.1391 40.1745C44.1288 40.1804 44.1211 40.1853 44.1055 40.1952C44.098 40.2 44.0887 40.206 44.0763 40.2138L43.3683 40.6604L43.3107 39.8253C43.2673 39.1955 42.9738 38.8179 42.7303 38.6047L43.0597 38.2285L42.7303 38.6047C42.3954 38.3114 41.9381 38.1408 41.4359 38.1405H41.4343C40.8821 38.1405 40.3449 38.3563 39.9923 38.7488L39.6024 39.1829L39.2332 38.7311C39.174 38.6587 39.1089 38.5913 39.0385 38.5294C38.7037 38.2361 38.2467 38.0655 37.7447 38.0652H37.7431C37.3557 38.0652 36.9942 38.1673 36.6952 38.3492L35.9348 38.8118L35.9354 37.9217L35.9403 30.3636L35.9403 30.363C35.9413 29.8692 35.748 29.4039 35.3908 29.0491L35.3908 29.0491C35.0334 28.6941 34.5627 28.5 34.0622 28.5H34.0578C33.558 28.5 33.0882 28.6932 32.7306 29.047L46.8476 47.4105ZM46.8476 47.4105C46.8495 49.4267 46.1119 51.3768 44.7692 52.9004C43.8058 53.9929 43.336 55.2396 43.3473 56.6835L43.3473 56.6836M46.8476 47.4105L43.3473 56.6836M44.2889 39.5613C44.2972 39.6247 44.3037 39.6897 44.3083 39.7565L43.9161 39.7835L43.9161 39.7835L43.8095 39.7909L44.2889 39.5613ZM44.2889 39.5613C44.9116 39.35 45.6102 39.4123 46.1948 39.7476L44.2889 39.5613ZM43.3473 56.6836L43.3567 57.8731C43.3568 57.8801 43.3541 57.8876 43.3479 57.8938C43.3416 57.9002 43.3321 57.9046 43.3212 57.9047L43.3193 57.9047M43.3473 56.6836L43.3193 57.9047M43.3193 57.9047C43.3091 57.9043 43.3002 57.9001 43.2941 57.8942C43.2879 57.888 43.2851 57.8805 43.285 57.8736L43.2755 56.684C43.2642 55.2397 43.7443 53.9601 44.7125 52.8623L44.7126 52.8622C46.0442 51.3511 46.7776 49.4148 46.7759 47.41V47.4105L46.2759 47.4099L46.7759 47.4095L43.3193 57.9047ZM43.2452 39.9891V39.9892L43.2433 41.896C43.2433 41.896 43.2433 41.8961 43.2433 41.8961C43.2433 41.903 43.2461 41.9105 43.2523 41.9167C43.2585 41.9228 43.2683 41.9274 43.2796 41.9274L43.2792 42.4274L43.2791 41.9274C43.29 41.9274 43.2996 41.9231 43.306 41.9167C43.3121 41.9106 43.315 41.903 43.315 41.8959C43.3155 41.1993 43.587 40.5649 44.1784 40.2269L43.2452 39.9891ZM43.2452 39.9891C43.2456 39.4098 43.0252 38.9456 42.6603 38.6335C42.3073 38.3315 41.8574 38.2036 41.4359 38.2032H41.4355M43.2452 39.9891L41.4355 38.2032M41.4355 38.2032H41.4343C40.9818 38.2032 40.5276 38.3539 40.192 38.6467L40.1919 38.6468M41.4355 38.2032L40.1919 38.6468M40.1919 38.6468C39.8015 38.9877 39.6252 39.4595 39.6248 39.9855V39.9859M40.1919 38.6468L39.6248 39.9859M39.6248 39.9859V41.8915C39.6244 41.8981 39.6216 41.9052 39.6157 41.911C39.6092 41.9173 39.5997 41.9215 39.5889 41.9215C39.5782 41.9215 39.5686 41.9173 39.5622 41.911C39.5563 41.9052 39.5534 41.8981 39.5531 41.8915V39.9143M39.6248 39.9859L35.9327 41.8961L35.934 39.9218L35.934 39.9136L35.9341 39.9136C35.9342 39.9069 35.9344 39.9008 35.9347 39.8959C35.9383 39.3757 36.1148 38.9093 36.5014 38.5715L36.5016 38.5714C36.8369 38.2786 37.2908 38.1279 37.7432 38.1279H37.7443H37.7447C38.1661 38.1282 38.6159 38.2563 38.9687 38.5584C39.3334 38.8707 39.5535 39.335 39.5531 39.9143M33.093 56.684C33.1043 55.2397 32.6242 53.9601 31.6562 52.8626L31.6561 52.8624C30.3136 51.339 29.5717 49.3982 29.5717 47.3967V47.3963L29.5755 42.7155L29.5755 42.7151C29.5763 42.2347 29.7693 41.7825 30.1112 41.4441L30.4629 41.7995L30.1112 41.4441C30.4521 41.1069 30.9047 40.9185 31.3842 40.9185H31.67H32.1704L32.17 41.4189L32.167 45.2353C32.167 45.2389 32.1677 45.2425 32.1692 45.2459C32.1706 45.2495 32.1729 45.2529 32.176 45.256C32.1792 45.2591 32.1831 45.2618 32.1878 45.2638C32.1921 45.2656 32.1976 45.2667 32.2032 45.2667C32.2139 45.2666 32.2234 45.2623 32.2297 45.2561C32.236 45.2499 32.2388 45.2424 32.2388 45.2354L33.093 56.684ZM33.093 56.684L33.0834 57.8736C33.0834 57.8805 33.0806 57.888 33.0743 57.8942C33.0679 57.9005 33.0584 57.9047 33.0476 57.9047H33.0464C33.0359 57.9044 33.0267 57.9001 33.0206 57.8939C33.0144 57.8877 33.0117 57.8801 33.0117 57.8732L33.0212 56.6835L33.0212 56.6834C33.0325 55.2396 32.5627 53.9929 31.5994 52.9005C30.2441 51.3625 29.5001 49.4076 29.5 47.3965C29.5 47.3964 29.5 47.3963 29.5 47.3963L29.5037 42.7154C29.5037 42.7154 29.5037 42.7153 29.5037 42.7152C29.5048 42.2217 29.6995 41.7569 30.0576 41.4027L30.0577 41.4026C30.4152 41.0488 30.8846 40.8557 31.3831 40.8557H31.6708H32.1704L32.1708 40.3561L32.1784 30.3591V30.3587C32.1784 29.8663 32.3725 29.4016 32.7306 29.0471L33.093 56.684ZM39.5531 39.9143L39.0531 39.9139H39.5531V39.9143ZM32.2502 30.3592L32.2388 45.2354L32.7502 30.3592L32.2502 30.3588L32.2502 30.3591C32.2502 30.3592 32.2502 30.3592 32.2502 30.3592ZM34.0588 28.5628C33.5788 28.5628 33.1255 28.7508 32.7843 29.0885L35.9327 41.8961C35.9327 41.903 35.9299 41.9105 35.9237 41.9167C35.9172 41.9231 35.9077 41.9274 35.8968 41.9274L35.8969 42.4274L35.8973 41.9274C35.8916 41.9274 35.8861 41.9262 35.8818 41.9245C35.8771 41.9225 35.8731 41.9198 35.87 41.9167C35.8669 41.9136 35.8646 41.9102 35.8632 41.9066C35.8617 41.9032 35.861 41.8996 35.861 41.896C35.861 41.896 35.861 41.896 35.861 41.896L35.8686 30.3636L35.3686 30.3626L35.8686 30.3629V30.3631C35.8694 29.8824 35.6784 29.4295 35.3371 29.0905C34.9961 28.7517 34.5417 28.5628 34.0612 28.5628H34.0588ZM35.9357 39.8796L35.9357 39.8797C35.9357 39.8792 35.9357 39.8791 35.9357 39.8794L35.9357 39.8796Z" stroke="white"/>
</svg>
