<svg viewBox="0 0 50 50" xmlns="http://www.w3.org/2000/svg">
<circle cx="24.6724" cy="24.6724" r="23.9224" stroke-width="1.5" fill="none"/>
<path d="M24.6722 41.9439C24.5413 41.9439 24.4158 41.8919 24.3232 41.7993C24.2307 41.7068 24.1787 41.5813 24.1787 41.4504V28.0286C24.1787 27.8977 24.2307 27.7722 24.3232 27.6796C24.4158 27.5871 24.5413 27.5351 24.6722 27.5351C24.803 27.5351 24.9285 27.5871 25.0211 27.6796C25.1136 27.7722 25.1656 27.8977 25.1656 28.0286V41.4504C25.1656 41.5813 25.1136 41.7068 25.0211 41.7993C24.9285 41.8919 24.803 41.9439 24.6722 41.9439ZM24.6722 21.8111C24.5413 21.8111 24.4158 21.7591 24.3232 21.6666C24.2307 21.574 24.1787 21.4485 24.1787 21.3176V7.89579C24.1787 7.76492 24.2307 7.63941 24.3232 7.54687C24.4158 7.45433 24.5413 7.40234 24.6722 7.40234C24.803 7.40234 24.9285 7.45433 25.0211 7.54687C25.1136 7.63941 25.1656 7.76492 25.1656 7.89579V21.3176C25.1656 21.4485 25.1136 21.574 25.0211 21.6666C24.9285 21.7591 24.803 21.8111 24.6722 21.8111Z" />
<path d="M24.6726 13.171C24.5418 13.1709 24.4163 13.1189 24.3237 13.0264L21.4617 10.1644C21.3718 10.0713 21.3221 9.94667 21.3232 9.81729C21.3244 9.68791 21.3763 9.56414 21.4677 9.47265C21.5592 9.38116 21.683 9.32927 21.8124 9.32814C21.9418 9.32702 22.0664 9.37676 22.1595 9.46664L24.6726 11.9798L27.1848 9.46763C27.2778 9.37774 27.4025 9.32801 27.5319 9.32913C27.6612 9.33025 27.785 9.38215 27.8765 9.47364C27.968 9.56513 28.0199 9.68889 28.021 9.81827C28.0221 9.94766 27.9724 10.0723 27.8825 10.1654L25.0205 13.0274C24.9281 13.1193 24.803 13.1709 24.6726 13.171ZM24.6726 17.4931C24.5418 17.4931 24.4163 17.4411 24.3237 17.3485L21.4617 14.4865C21.4146 14.441 21.377 14.3865 21.3512 14.3263C21.3253 14.2661 21.3117 14.2014 21.3111 14.1359C21.3105 14.0703 21.323 14.0054 21.3478 13.9447C21.3726 13.8841 21.4093 13.829 21.4556 13.7827C21.5019 13.7363 21.557 13.6997 21.6177 13.6749C21.6783 13.6501 21.7433 13.6376 21.8088 13.6381C21.8743 13.6387 21.9391 13.6523 21.9993 13.6782C22.0595 13.7041 22.114 13.7416 22.1595 13.7888L24.6726 16.3019L27.1848 13.7898C27.2303 13.7426 27.2847 13.705 27.3449 13.6792C27.4051 13.6533 27.4699 13.6397 27.5354 13.6391C27.6009 13.6386 27.6659 13.6511 27.7266 13.6759C27.7872 13.7007 27.8423 13.7373 27.8886 13.7836C27.935 13.83 27.9716 13.8851 27.9964 13.9457C28.0212 14.0064 28.0337 14.0713 28.0331 14.1369C28.0326 14.2024 28.019 14.2671 27.9931 14.3273C27.9672 14.3875 27.9296 14.442 27.8825 14.4875L25.0205 17.3495C24.9281 17.4415 24.803 17.4931 24.6726 17.4931ZM27.5346 40.0226C27.4038 40.0225 27.2783 39.9705 27.1858 39.878L24.6726 37.3658L22.1605 39.878C22.0674 39.9679 21.9427 40.0176 21.8134 40.0165C21.684 40.0154 21.5602 39.9635 21.4687 39.872C21.3772 39.7805 21.3253 39.6567 21.3242 39.5273C21.3231 39.398 21.3728 39.2733 21.4627 39.1802L24.3247 36.3182C24.4173 36.2257 24.5428 36.1738 24.6736 36.1738C24.8044 36.1738 24.9299 36.2257 25.0225 36.3182L27.8845 39.1802C27.9535 39.2493 28.0005 39.3372 28.0195 39.4329C28.0385 39.5286 28.0287 39.6278 27.9914 39.7179C27.9541 39.8081 27.8908 39.8851 27.8097 39.9394C27.7286 39.9936 27.6332 40.0225 27.5356 40.0226H27.5346ZM27.5346 35.7009C27.4038 35.7009 27.2783 35.6489 27.1858 35.5563L24.6726 33.0437L22.1605 35.5559C22.0674 35.6457 21.9427 35.6955 21.8134 35.6944C21.684 35.6932 21.5602 35.6413 21.4687 35.5498C21.3772 35.4584 21.3253 35.3346 21.3242 35.2052C21.3231 35.0758 21.3728 34.9512 21.4627 34.8581L24.3247 31.9961C24.4173 31.9036 24.5428 31.8516 24.6736 31.8516C24.8044 31.8516 24.9299 31.9036 25.0225 31.9961L27.8845 34.8581C27.9535 34.9271 28.0005 35.015 28.0195 35.1107C28.0385 35.2065 28.0287 35.3057 27.9914 35.3958C27.9541 35.486 27.8908 35.563 27.8097 35.6172C27.7286 35.6715 27.6332 35.7004 27.5356 35.7004L27.5346 35.7009ZM21.3172 25.1663H7.89531C7.76443 25.1663 7.63892 25.1143 7.54638 25.0217C7.45384 24.9292 7.40186 24.8037 7.40186 24.6728C7.40186 24.5419 7.45384 24.4164 7.54638 24.3239C7.63892 24.2313 7.76443 24.1794 7.89531 24.1794H21.3172C21.448 24.1794 21.5735 24.2313 21.6661 24.3239C21.7586 24.4164 21.8106 24.5419 21.8106 24.6728C21.8106 24.8037 21.7586 24.9292 21.6661 25.0217C21.5735 25.1143 21.448 25.1663 21.3172 25.1663ZM41.4499 25.1663H28.0281C27.8972 25.1663 27.7717 25.1143 27.6792 25.0217C27.5866 24.9292 27.5346 24.8037 27.5346 24.6728C27.5346 24.5419 27.5866 24.4164 27.6792 24.3239C27.7717 24.2313 27.8972 24.1794 28.0281 24.1794H41.4499C41.5808 24.1794 41.7063 24.2313 41.7988 24.3239C41.8914 24.4164 41.9434 24.5419 41.9434 24.6728C41.9434 24.8037 41.8914 24.9292 41.7988 25.0217C41.7063 25.1143 41.5808 25.1663 41.4499 25.1663Z" />
<path d="M39.5287 28.0291C39.3979 28.0291 39.2724 27.9771 39.1798 27.8846L36.3178 25.0225C36.2253 24.93 36.1734 24.8045 36.1734 24.6737C36.1734 24.5428 36.2253 24.4173 36.3178 24.3248L39.1798 21.4628C39.2729 21.3729 39.3976 21.3232 39.5269 21.3243C39.6563 21.3254 39.7801 21.3773 39.8716 21.4688C39.9631 21.5603 40.015 21.6841 40.0161 21.8134C40.0172 21.9428 39.9675 22.0675 39.8776 22.1605L37.3654 24.6737L39.8776 27.1858C39.9466 27.2548 39.9936 27.3428 40.0126 27.4385C40.0316 27.5342 40.0218 27.6334 39.9845 27.7235C39.9472 27.8137 39.8839 27.8907 39.8028 27.945C39.7217 27.9992 39.6263 28.0281 39.5287 28.0282V28.0291ZM35.2071 28.0291C35.0762 28.0291 34.9507 27.9771 34.8582 27.8846L31.9962 25.0225C31.9037 24.93 31.8517 24.8045 31.8517 24.6737C31.8517 24.5428 31.9037 24.4173 31.9962 24.3248L34.8582 21.4628C34.9513 21.3729 35.0759 21.3232 35.2053 21.3243C35.3347 21.3254 35.4584 21.3773 35.5499 21.4688C35.6414 21.5603 35.6933 21.6841 35.6944 21.8134C35.6956 21.9428 35.6458 22.0675 35.5559 22.1605L33.0433 24.6737L35.5555 27.1858C35.6244 27.2548 35.6714 27.3428 35.6905 27.4385C35.7095 27.5342 35.6997 27.6334 35.6624 27.7235C35.625 27.8137 35.5618 27.8907 35.4807 27.945C35.3995 27.9992 35.3042 28.0281 35.2066 28.0282L35.2071 28.0291ZM9.8161 28.0291C9.71852 28.0291 9.62314 28.0002 9.54201 27.9459C9.46088 27.8917 9.39765 27.8147 9.36031 27.7245C9.32297 27.6344 9.3132 27.5352 9.33223 27.4395C9.35126 27.3437 9.39824 27.2558 9.46723 27.1868L11.9794 24.6737L9.46723 22.1615C9.37734 22.0685 9.32761 21.9438 9.32873 21.8144C9.32986 21.685 9.38175 21.5613 9.47324 21.4698C9.56473 21.3783 9.68849 21.3264 9.81787 21.3253C9.94726 21.3242 10.0719 21.3739 10.165 21.4638L13.027 24.3258C13.1195 24.4183 13.1715 24.5438 13.1715 24.6747C13.1715 24.8055 13.1195 24.931 13.027 25.0235L10.165 27.8855C10.0723 27.9777 9.94682 28.0294 9.8161 28.0291ZM14.1377 28.0291C14.0402 28.0291 13.9448 28.0002 13.8636 27.9459C13.7825 27.8917 13.7193 27.8147 13.6819 27.7245C13.6446 27.6344 13.6348 27.5352 13.6539 27.4395C13.6729 27.3437 13.7199 27.2558 13.7889 27.1868L16.3015 24.6737L13.7894 22.1615C13.7422 22.116 13.7046 22.0616 13.6788 22.0013C13.6529 21.9411 13.6393 21.8764 13.6387 21.8109C13.6382 21.7454 13.6507 21.6804 13.6755 21.6197C13.7003 21.5591 13.7369 21.504 13.7832 21.4577C13.8296 21.4113 13.8847 21.3747 13.9453 21.3499C14.006 21.3251 14.0709 21.3126 14.1365 21.3132C14.202 21.3137 14.2667 21.3273 14.3269 21.3532C14.3871 21.3791 14.4416 21.4167 14.4871 21.4638L17.3491 24.3258C17.4416 24.4183 17.4936 24.5438 17.4936 24.6747C17.4936 24.8055 17.4416 24.931 17.3491 25.0235L14.4871 27.8855C14.4411 27.9312 14.3866 27.9675 14.3267 27.9921C14.2668 28.0167 14.2025 28.0293 14.1377 28.0291ZM36.5364 37.0312C36.4056 37.0311 36.2801 36.9791 36.1876 36.8866L26.6956 27.3955C26.6029 27.3029 26.5508 27.1772 26.5508 27.0462C26.5508 26.9151 26.6029 26.7895 26.6956 26.6968C26.7882 26.6042 26.9139 26.5521 27.0449 26.5521C27.176 26.5521 27.3016 26.6042 27.3943 26.6968L36.8853 36.1888C36.9543 36.2578 37.0013 36.3458 37.0203 36.4415C37.0393 36.5372 37.0296 36.6364 36.9922 36.7265C36.9549 36.8167 36.8917 36.8937 36.8105 36.948C36.7294 37.0022 36.634 37.0311 36.5364 37.0312ZM22.2994 22.7941C22.1685 22.7941 22.0431 22.7421 21.9505 22.6495L12.4595 13.1585C12.3696 13.0655 12.3199 12.9408 12.321 12.8114C12.3221 12.682 12.374 12.5583 12.4655 12.4668C12.557 12.3753 12.6808 12.3234 12.8102 12.3223C12.9395 12.3212 13.0642 12.3709 13.1573 12.4608L22.6493 21.9518C22.7183 22.0208 22.7652 22.1087 22.7843 22.2044C22.8033 22.3001 22.7935 22.3993 22.7562 22.4895C22.7188 22.5796 22.6556 22.6567 22.5745 22.7109C22.4934 22.7652 22.398 22.7941 22.3004 22.7941H22.2994Z" />
<path d="M16.1916 16.6855H12.1453C12.0144 16.6855 11.8889 16.6335 11.7964 16.541C11.7038 16.4485 11.6519 16.323 11.6519 16.1921C11.6519 16.0612 11.7038 15.9357 11.7964 15.8432C11.8889 15.7506 12.0144 15.6986 12.1453 15.6986H15.6981V12.1458C15.6981 12.0149 15.7501 11.8894 15.8427 11.7969C15.9352 11.7043 16.0607 11.6523 16.1916 11.6523C16.3225 11.6523 16.448 11.7043 16.5405 11.7969C16.6331 11.8894 16.685 12.0149 16.685 12.1458V16.1921C16.685 16.323 16.6331 16.4485 16.5405 16.541C16.448 16.6335 16.3225 16.6855 16.1916 16.6855ZM19.2451 19.739H15.1988C15.0679 19.739 14.9424 19.687 14.8499 19.5945C14.7573 19.5019 14.7053 19.3764 14.7053 19.2456C14.7053 19.1147 14.7573 18.9892 14.8499 18.8966C14.9424 18.8041 15.0679 18.7521 15.1988 18.7521H18.7516V15.1993C18.7516 15.0684 18.8036 14.9429 18.8961 14.8503C18.9887 14.7578 19.1142 14.7058 19.2451 14.7058C19.3759 14.7058 19.5015 14.7578 19.594 14.8503C19.6865 14.9429 19.7385 15.0684 19.7385 15.1993V19.2456C19.7385 19.3764 19.6865 19.5019 19.594 19.5945C19.5015 19.687 19.3759 19.739 19.2451 19.739ZM33.1544 37.6952C33.0236 37.6952 32.8981 37.6432 32.8055 37.5506C32.713 37.4581 32.661 37.3326 32.661 37.2017V33.1554C32.661 33.0246 32.713 32.899 32.8055 32.8065C32.8981 32.714 33.0236 32.662 33.1544 32.662H37.2007C37.3316 32.662 37.4571 32.714 37.5497 32.8065C37.6422 32.899 37.6942 33.0246 37.6942 33.1554C37.6942 33.2863 37.6422 33.4118 37.5497 33.5044C37.4571 33.5969 37.3316 33.6489 37.2007 33.6489H33.6479V37.2017C33.6479 37.3326 33.5959 37.4581 33.5034 37.5506C33.4108 37.6432 33.2853 37.6952 33.1544 37.6952ZM30.101 34.6412C29.9701 34.6412 29.8446 34.5892 29.7521 34.4967C29.6595 34.4041 29.6075 34.2786 29.6075 34.1478V30.1015C29.6075 29.9706 29.6595 29.8451 29.7521 29.7525C29.8446 29.66 29.9701 29.608 30.101 29.608H34.1473C34.2781 29.608 34.4037 29.66 34.4962 29.7525C34.5887 29.8451 34.6407 29.9706 34.6407 30.1015C34.6407 30.2323 34.5887 30.3578 34.4962 30.4504C34.4037 30.5429 34.2781 30.5949 34.1473 30.5949H30.5944V34.1478C30.5944 34.2786 30.5424 34.4041 30.4499 34.4967C30.3574 34.5892 30.2318 34.6412 30.101 34.6412ZM12.809 37.031C12.7114 37.031 12.616 37.002 12.5349 36.9478C12.4538 36.8936 12.3905 36.8165 12.3532 36.7264C12.3159 36.6362 12.3061 36.537 12.3251 36.4413C12.3442 36.3456 12.3911 36.2577 12.4601 36.1887L21.9511 26.6967C22.0438 26.604 22.1695 26.5519 22.3005 26.5519C22.4316 26.5519 22.5572 26.604 22.6499 26.6967C22.7425 26.7893 22.7946 26.915 22.7946 27.046C22.7946 27.1771 22.7425 27.3027 22.6499 27.3954L13.1579 36.8864C13.0653 36.979 12.9399 37.031 12.809 37.031ZM27.046 22.794C26.9484 22.7939 26.8531 22.765 26.7719 22.7108C26.6908 22.6565 26.6276 22.5795 26.5902 22.4893C26.5529 22.3992 26.5431 22.3 26.5622 22.2043C26.5812 22.1086 26.6282 22.0206 26.6972 21.9516L36.1882 12.4606C36.2812 12.3707 36.4059 12.321 36.5353 12.3221C36.6647 12.3232 36.7884 12.3751 36.8799 12.4666C36.9714 12.5581 37.0233 12.6819 37.0244 12.8113C37.0255 12.9406 36.9758 13.0653 36.8859 13.1584L27.3949 22.6504C27.3022 22.7425 27.1767 22.7942 27.046 22.794Z" />
<path d="M37.2012 16.6855H33.1549C33.0241 16.6855 32.8986 16.6335 32.806 16.541C32.7135 16.4485 32.6615 16.323 32.6615 16.1921V12.1458C32.6615 12.0149 32.7135 11.8894 32.806 11.7969C32.8986 11.7043 33.0241 11.6523 33.1549 11.6523C33.2858 11.6523 33.4113 11.7043 33.5039 11.7969C33.5964 11.8894 33.6484 12.0149 33.6484 12.1458V15.6986H37.2012C37.3321 15.6986 37.4576 15.7506 37.5502 15.8432C37.6427 15.9357 37.6947 16.0612 37.6947 16.1921C37.6947 16.323 37.6427 16.4485 37.5502 16.541C37.4576 16.6335 37.3321 16.6855 37.2012 16.6855ZM34.1473 19.739H30.101C29.9701 19.739 29.8446 19.687 29.7521 19.5945C29.6595 19.5019 29.6075 19.3764 29.6075 19.2456V15.1993C29.6075 15.0684 29.6595 14.9429 29.7521 14.8503C29.8446 14.7578 29.9701 14.7058 30.101 14.7058C30.2318 14.7058 30.3574 14.7578 30.4499 14.8503C30.5424 14.9429 30.5944 15.0684 30.5944 15.1993V18.7521H34.1473C34.2781 18.7521 34.4037 18.8041 34.4962 18.8966C34.5887 18.9892 34.6407 19.1147 34.6407 19.2456C34.6407 19.3764 34.5887 19.5019 34.4962 19.5945C34.4037 19.687 34.2781 19.739 34.1473 19.739ZM16.1916 37.6952C16.0607 37.6952 15.9352 37.6432 15.8427 37.5506C15.7501 37.4581 15.6981 37.3326 15.6981 37.2017V33.6489H12.1453C12.0144 33.6489 11.8889 33.5969 11.7964 33.5044C11.7038 33.4118 11.6519 33.2863 11.6519 33.1554C11.6519 33.0246 11.7038 32.899 11.7964 32.8065C11.8889 32.714 12.0144 32.662 12.1453 32.662H16.1916C16.3225 32.662 16.448 32.714 16.5405 32.8065C16.6331 32.899 16.685 33.0246 16.685 33.1554V37.2017C16.685 37.3326 16.6331 37.4581 16.5405 37.5506C16.448 37.6432 16.3225 37.6952 16.1916 37.6952ZM19.2451 34.6412C19.1142 34.6412 18.9887 34.5892 18.8961 34.4967C18.8036 34.4041 18.7516 34.2786 18.7516 34.1478V30.5949H15.1988C15.0679 30.5949 14.9424 30.5429 14.8499 30.4504C14.7573 30.3578 14.7053 30.2323 14.7053 30.1015C14.7053 29.9706 14.7573 29.8451 14.8499 29.7525C14.9424 29.66 15.0679 29.608 15.1988 29.608H19.2451C19.3759 29.608 19.5015 29.66 19.594 29.7525C19.6865 29.8451 19.7385 29.9706 19.7385 30.1015V34.1478C19.7385 34.2786 19.6865 34.4041 19.594 34.4967C19.5015 34.5892 19.3759 34.6412 19.2451 34.6412ZM24.673 28.5224C23.9118 28.5224 23.1676 28.2967 22.5347 27.8738C21.9017 27.4508 21.4084 26.8497 21.1171 26.1464C20.8258 25.4431 20.7496 24.6692 20.8981 23.9226C21.0466 23.176 21.4131 22.4902 21.9514 21.9519C22.4897 21.4136 23.1755 21.0471 23.9221 20.8986C24.6688 20.75 25.4426 20.8263 26.1459 21.1176C26.8492 21.4089 27.4504 21.9022 27.8733 22.5352C28.2962 23.1681 28.5219 23.9123 28.5219 24.6735C28.5208 25.6939 28.1149 26.6722 27.3933 27.3938C26.6718 28.1154 25.6935 28.5212 24.673 28.5224ZM24.673 21.8115C24.107 21.8115 23.5536 21.9794 23.083 22.2938C22.6123 22.6083 22.2455 23.0553 22.0289 23.5783C21.8122 24.1012 21.7556 24.6767 21.866 25.2319C21.9764 25.787 22.249 26.297 22.6493 26.6973C23.0495 27.0975 23.5595 27.3701 24.1147 27.4805C24.6698 27.591 25.2453 27.5343 25.7683 27.3177C26.2912 27.101 26.7382 26.7342 27.0527 26.2636C27.3672 25.7929 27.535 25.2396 27.535 24.6735C27.5343 23.9147 27.2325 23.1872 26.6959 22.6506C26.1593 22.1141 25.4318 21.8123 24.673 21.8115Z" />
</svg>
