<svg viewBox="0 0 51 50" xmlns="http://www.w3.org/2000/svg">
<circle cx="25.4947" cy="24.6724" r="23.6724" stroke-width="2" fill="none"/>
<path d="M25.9686 13.7791C25.9686 13.1517 25.0034 13.1517 25.0034 13.7791V23.8654C25.0034 24.4928 25.9686 24.4928 25.9686 23.8654V13.7791Z" stroke="none" />
<path d="M30.1448 10.3517C30.1448 9.72436 29.1796 9.72436 29.1796 10.3517C29.1796 13.006 25.174 14.309 22.8576 12.4028C21.2891 11.1239 22.2302 9.86914 21.3133 9.86914C20.3481 9.86914 20.9272 12.065 22.2543 13.1508C25.174 15.5638 30.1448 13.8023 30.1448 10.3517Z" stroke="none" />
<path d="M27.4158 10.4242C27.4158 9.77267 26.4506 9.77267 26.4506 10.4242C26.4506 11.7996 25.7508 14.5745 24.9304 12.5959C24.2789 11.0757 24.9062 9.96571 24.0617 9.96571C23.9337 9.96571 23.811 10.0166 23.7205 10.1071C23.6299 10.1976 23.5791 10.3203 23.5791 10.4483C23.5791 15.5638 27.4158 15.5638 27.4158 10.4483V10.4242ZM32.9656 17.084C33.3758 16.6256 32.7243 15.9499 32.2659 16.3843L25.1717 23.5026C24.7373 23.9852 25.413 24.6367 25.8473 24.2023L32.9656 17.084Z" stroke="none" />
<path d="M38.3206 17.5916C38.779 17.1573 38.0793 16.4575 37.6449 16.916C35.7869 18.774 31.9985 16.8677 31.6848 13.8998C31.4918 11.8729 33.0603 11.6798 32.4087 11.0042C31.709 10.3286 30.5749 12.2831 30.7197 13.9963C31.1057 17.7606 35.8593 20.0288 38.2964 17.6158L38.3206 17.5916Z" stroke="none" />
<path d="M36.3421 15.0321C35.7871 14.4288 35.3769 15.6594 33.8567 16.3109C32.9157 16.6729 32.6502 16.4316 33.0363 15.4905C33.6396 13.9703 34.9185 13.5843 34.3152 13.0051C34.225 12.9167 34.1037 12.8672 33.9774 12.8672C33.8511 12.8672 33.7298 12.9167 33.6396 13.0051C29.9718 16.8418 32.8433 19.2065 36.3421 15.7077C36.4305 15.6175 36.4801 15.4962 36.4801 15.3699C36.4801 15.2435 36.4305 15.1223 36.3421 15.0321ZM35.5458 24.3462C36.1973 24.3462 36.1973 23.381 35.5458 23.381H25.5078C24.8563 23.381 24.8563 24.3462 25.4837 24.3462H35.5458Z" stroke="none" />
<path d="M38.9932 28.4964C39.6206 28.4964 39.6206 27.5312 38.9932 27.5312C36.363 27.5312 35.0359 23.5257 36.9422 21.2092C38.221 19.6407 39.4758 20.5818 39.4758 19.689C39.4758 18.6997 37.28 19.2788 36.1941 20.6059C33.7811 23.5257 35.5426 28.4964 38.9932 28.4964Z" stroke="none" />
<path d="M38.9203 25.7702C39.5477 25.7702 39.5477 24.805 38.9203 24.805C37.5449 24.805 34.77 24.1294 36.7486 23.2849C38.2688 22.6334 39.4029 23.2607 39.4029 22.4162C39.4029 22.2882 39.352 22.1654 39.2615 22.0749C39.171 21.9844 39.0483 21.9336 38.9203 21.9336C33.8048 21.9336 33.8048 25.7702 38.9203 25.7702ZM32.2604 31.3201C32.7189 31.7545 33.3946 31.0788 32.9602 30.6445L25.8178 23.502C25.4076 23.0677 24.7078 23.7433 25.1663 24.2018L32.2604 31.3201Z" stroke="none" />
<path d="M31.7625 36.677C32.1968 37.1596 32.8966 36.4357 32.4381 36.0014C30.5801 34.1434 32.4864 30.3791 35.4543 30.0895C37.4812 29.8724 37.6743 31.4408 38.3499 30.8134C39.0256 30.0895 37.071 28.9554 35.3578 29.1243C31.5936 29.4863 29.3253 34.2399 31.7383 36.677H31.7625Z" stroke="none" />
<path d="M33.6132 34.7234C34.0958 35.1577 34.7715 34.4821 34.3371 34.0236C33.2996 33.0343 31.8518 30.6213 33.8545 31.3935C35.3989 32.0208 35.7367 33.2756 36.3399 32.6724C36.4283 32.5821 36.4779 32.4609 36.4779 32.3345C36.4779 32.2082 36.4283 32.0869 36.3399 31.9967C32.5033 28.329 30.1385 31.2004 33.6374 34.6993L33.6132 34.7234ZM18.0253 30.6213C17.5669 31.1039 18.2666 31.7796 18.701 31.3452L25.8193 24.2028C26.3019 23.7443 25.578 23.0687 25.1678 23.503L18.0253 30.6213Z" stroke="none" />
<path d="M12.6427 30.1145C12.2083 30.5729 12.8839 31.2486 13.3424 30.7901C15.2004 28.9321 18.9647 30.8625 19.2542 33.8063C19.4473 35.8332 17.903 36.0504 18.5303 36.7019C19.2542 37.3775 20.3883 35.423 20.2194 33.7339C19.8575 29.9455 15.1039 27.6773 12.6427 30.1145Z" stroke="none" />
<path d="M17.3475 34.7219C16.9132 35.1321 16.1893 34.4806 16.6719 33.998C17.5647 33.1535 19.1332 30.6198 17.1545 31.392C15.5619 32.0194 15.2 33.2741 14.6209 32.6709C14.5324 32.5806 14.4829 32.4594 14.4829 32.333C14.4829 32.2067 14.5324 32.0854 14.6209 31.9952C18.2403 28.3757 20.9429 31.0783 17.3234 34.6978L17.3475 34.7219ZM15.4171 23.3809C14.7898 23.3809 14.7898 24.3461 15.4171 24.3461H25.4793C26.1308 24.3461 26.1308 23.3809 25.4793 23.3809H15.4171Z" stroke="none" />
<path d="M11.9963 19.207C11.3689 19.207 11.3689 20.1722 11.9963 20.1722C14.6264 20.1722 15.9536 24.1778 14.0473 26.4943C12.7684 28.0627 11.5137 27.1216 11.5137 28.0144C11.5137 29.0038 13.6854 28.4246 14.7953 27.0975C17.2083 24.1778 15.4468 19.207 11.9963 19.207Z" stroke="none" />
<path d="M12.0736 21.9335C11.4221 21.9335 11.4221 22.8987 12.0736 22.8987C13.449 22.8987 16.2239 23.5984 14.2453 24.4188C12.7251 25.0703 11.591 24.443 11.591 25.3116C11.591 25.5771 11.8082 25.7942 12.0736 25.7942C17.165 25.7701 17.165 21.9335 12.0736 21.9335ZM18.7093 16.3836C18.275 15.9492 17.5752 16.6249 18.0337 17.1075L25.1761 24.2017C25.6105 24.636 26.2861 23.9604 25.8276 23.5019L18.7093 16.3836Z" stroke="none" />
<path d="M19.2298 11.0288C18.7714 10.5703 18.0957 11.2701 18.5542 11.7044C20.4122 13.5624 18.506 17.3508 15.5138 17.6403C13.5111 17.8334 13.2939 16.2649 12.6183 16.9165C11.9426 17.6162 13.873 18.7503 15.5862 18.6055C19.3988 18.1953 21.667 13.4417 19.2298 11.0046V11.0288Z" stroke="none" />
<path d="M17.3586 13.0055C16.9001 12.5229 16.2245 13.2468 16.6588 13.6811C17.6964 14.6946 19.1442 17.1075 17.1414 16.3113C15.5971 15.6598 15.2351 14.4291 14.656 15.0324C14.5676 15.1226 14.5181 15.2439 14.5181 15.3702C14.5181 15.4965 14.5676 15.6178 14.656 15.708C18.4685 19.3758 20.8333 16.5043 17.3586 13.0055ZM25.9729 23.8639C25.9729 23.2124 25.0077 23.2124 25.0077 23.8639V48.1084C25.0077 48.7358 25.9729 48.7358 25.9729 48.1084V23.8639Z" stroke="none" />
</svg>
