<svg viewBox="0 0 169 19" fill="none" xmlns="http://www.w3.org/2000/svg">
<g opacity="0.4">
<path d="M4.24 16.058C3.71333 16.058 3.22667 15.9714 2.78 15.798C2.33333 15.618 1.94667 15.368 1.62 15.048C1.29333 14.728 1.03667 14.3514 0.85 13.918C0.67 13.4847 0.58 13.0114 0.58 12.498C0.58 11.9847 0.67 11.5114 0.85 11.078C1.03667 10.6447 1.29333 10.268 1.62 9.94805C1.95333 9.62805 2.34333 9.38138 2.79 9.20805C3.23667 9.02805 3.72333 8.93805 4.25 8.93805C4.75667 8.93805 5.23333 9.02471 5.68 9.19805C6.12667 9.36471 6.50333 9.61805 6.81 9.95805L6.34 10.428C6.05333 10.1347 5.73667 9.92471 5.39 9.79805C5.04333 9.66471 4.67 9.59805 4.27 9.59805C3.85 9.59805 3.46 9.67138 3.1 9.81805C2.74 9.95805 2.42667 10.1614 2.16 10.428C1.89333 10.688 1.68333 10.9947 1.53 11.348C1.38333 11.6947 1.31 12.078 1.31 12.498C1.31 12.918 1.38333 13.3047 1.53 13.658C1.68333 14.0047 1.89333 14.3114 2.16 14.578C2.42667 14.838 2.74 15.0414 3.1 15.188C3.46 15.328 3.85 15.398 4.27 15.398C4.67 15.398 5.04333 15.3314 5.39 15.198C5.73667 15.0647 6.05333 14.8514 6.34 14.558L6.81 15.028C6.50333 15.368 6.12667 15.6247 5.68 15.798C5.23333 15.9714 4.75333 16.058 4.24 16.058ZM11.3501 15.998V14.838L11.3201 14.648V12.708C11.3201 12.2614 11.1934 11.918 10.9401 11.678C10.6934 11.438 10.3234 11.318 9.83008 11.318C9.49008 11.318 9.16674 11.3747 8.86008 11.488C8.55341 11.6014 8.29341 11.7514 8.08008 11.938L7.76008 11.408C8.02674 11.1814 8.34674 11.008 8.72008 10.888C9.09341 10.7614 9.48674 10.698 9.90008 10.698C10.5801 10.698 11.1034 10.868 11.4701 11.208C11.8434 11.5414 12.0301 12.0514 12.0301 12.738V15.998H11.3501ZM9.54008 16.048C9.14674 16.048 8.80341 15.9847 8.51008 15.858C8.22341 15.7247 8.00341 15.5447 7.85008 15.318C7.69674 15.0847 7.62008 14.818 7.62008 14.518C7.62008 14.2447 7.68341 13.998 7.81008 13.778C7.94341 13.5514 8.15674 13.3714 8.45008 13.238C8.75008 13.098 9.15008 13.028 9.65008 13.028H11.4601V13.558H9.67008C9.16341 13.558 8.81008 13.648 8.61008 13.828C8.41674 14.008 8.32008 14.2314 8.32008 14.498C8.32008 14.798 8.43674 15.038 8.67008 15.218C8.90341 15.398 9.23008 15.488 9.65008 15.488C10.0501 15.488 10.3934 15.398 10.6801 15.218C10.9734 15.0314 11.1867 14.7647 11.3201 14.418L11.4801 14.908C11.3467 15.2547 11.1134 15.5314 10.7801 15.738C10.4534 15.9447 10.0401 16.048 9.54008 16.048ZM13.9202 15.998V10.748H14.6302V14.918L18.1402 10.748H18.7702V15.998H18.0602V11.818L14.5602 15.998H13.9202ZM16.3002 9.98805C15.8602 9.98805 15.5035 9.87805 15.2302 9.65805C14.9635 9.43138 14.8235 9.10805 14.8102 8.68805H15.3202C15.3268 8.95471 15.4202 9.16471 15.6002 9.31805C15.7802 9.47138 16.0135 9.54805 16.3002 9.54805C16.5868 9.54805 16.8202 9.47138 17.0002 9.31805C17.1868 9.16471 17.2835 8.95471 17.2902 8.68805H17.8002C17.7935 9.10805 17.6535 9.43138 17.3802 9.65805C17.1068 9.87805 16.7468 9.98805 16.3002 9.98805ZM21.8049 15.998V11.178L21.9849 11.368H19.8149V10.748H24.5049V11.368H22.3349L22.5149 11.178V15.998H21.8049ZM30.3487 16.048C29.8287 16.048 29.362 15.9347 28.9487 15.708C28.542 15.4747 28.222 15.158 27.9887 14.758C27.7553 14.3514 27.6387 13.888 27.6387 13.368C27.6387 12.8414 27.7553 12.378 27.9887 11.978C28.222 11.578 28.542 11.2647 28.9487 11.038C29.362 10.8114 29.8287 10.698 30.3487 10.698C30.7953 10.698 31.1987 10.7847 31.5587 10.958C31.9187 11.1314 32.202 11.3914 32.4087 11.738L31.8787 12.098C31.6987 11.8314 31.4753 11.6347 31.2087 11.508C30.942 11.3814 30.652 11.318 30.3387 11.318C29.9653 11.318 29.6287 11.4047 29.3287 11.578C29.0287 11.7447 28.792 11.9814 28.6187 12.288C28.4453 12.5947 28.3587 12.9547 28.3587 13.368C28.3587 13.7814 28.4453 14.1414 28.6187 14.448C28.792 14.7547 29.0287 14.9947 29.3287 15.168C29.6287 15.3347 29.9653 15.418 30.3387 15.418C30.652 15.418 30.942 15.3547 31.2087 15.228C31.4753 15.1014 31.6987 14.908 31.8787 14.648L32.4087 15.008C32.202 15.348 31.9187 15.608 31.5587 15.788C31.1987 15.9614 30.7953 16.048 30.3487 16.048ZM35.8555 16.048C35.3489 16.048 34.8922 15.9347 34.4855 15.708C34.0855 15.4747 33.7689 15.158 33.5355 14.758C33.3022 14.3514 33.1855 13.888 33.1855 13.368C33.1855 12.8414 33.3022 12.378 33.5355 11.978C33.7689 11.578 34.0855 11.2647 34.4855 11.038C34.8855 10.8114 35.3422 10.698 35.8555 10.698C36.3755 10.698 36.8355 10.8114 37.2355 11.038C37.6422 11.2647 37.9589 11.578 38.1855 11.978C38.4189 12.378 38.5355 12.8414 38.5355 13.368C38.5355 13.888 38.4189 14.3514 38.1855 14.758C37.9589 15.158 37.6422 15.4747 37.2355 15.708C36.8289 15.9347 36.3689 16.048 35.8555 16.048ZM35.8555 15.418C36.2355 15.418 36.5722 15.3347 36.8655 15.168C37.1589 14.9947 37.3889 14.7547 37.5555 14.448C37.7289 14.1347 37.8155 13.7747 37.8155 13.368C37.8155 12.9547 37.7289 12.5947 37.5555 12.288C37.3889 11.9814 37.1589 11.7447 36.8655 11.578C36.5722 11.4047 36.2389 11.318 35.8655 11.318C35.4922 11.318 35.1589 11.4047 34.8655 11.578C34.5722 11.7447 34.3389 11.9814 34.1655 12.288C33.9922 12.5947 33.9055 12.9547 33.9055 13.368C33.9055 13.7747 33.9922 14.1347 34.1655 14.448C34.3389 14.7547 34.5722 14.9947 34.8655 15.168C35.1589 15.3347 35.4889 15.418 35.8555 15.418ZM41.4239 16.058C41.0439 16.058 40.6672 16.0047 40.2939 15.898C39.9206 15.7914 39.5906 15.628 39.3039 15.408L39.5339 14.878C39.7872 15.0647 40.0806 15.208 40.4139 15.308C40.7472 15.4014 41.0772 15.448 41.4039 15.448C41.7306 15.4414 42.0139 15.3947 42.2539 15.308C42.4939 15.2214 42.6806 15.1014 42.8139 14.948C42.9472 14.7947 43.0139 14.6214 43.0139 14.428C43.0139 14.148 42.8872 13.9314 42.6339 13.778C42.3806 13.618 42.0339 13.538 41.5939 13.538H40.6939V13.018H41.5439C41.8039 13.018 42.0339 12.9847 42.2339 12.918C42.4339 12.8514 42.5872 12.7547 42.6939 12.628C42.8072 12.5014 42.8639 12.3514 42.8639 12.178C42.8639 11.9914 42.7972 11.8314 42.6639 11.698C42.5372 11.5647 42.3606 11.4647 42.1339 11.398C41.9072 11.3314 41.6506 11.298 41.3639 11.298C41.1039 11.3047 40.8339 11.3447 40.5539 11.418C40.2739 11.4847 39.9972 11.588 39.7239 11.728L39.5239 11.178C39.8306 11.018 40.1339 10.898 40.4339 10.818C40.7406 10.7314 41.0472 10.688 41.3539 10.688C41.7739 10.6747 42.1506 10.7247 42.4839 10.838C42.8239 10.9514 43.0939 11.1147 43.2939 11.328C43.4939 11.5347 43.5939 11.7847 43.5939 12.078C43.5939 12.338 43.5139 12.5647 43.3539 12.758C43.1939 12.9514 42.9806 13.1014 42.7139 13.208C42.4472 13.3147 42.1439 13.368 41.8039 13.368L41.8339 13.178C42.4339 13.178 42.9006 13.2947 43.2339 13.528C43.5739 13.7614 43.7439 14.078 43.7439 14.478C43.7439 14.7914 43.6406 15.068 43.4339 15.308C43.2272 15.5414 42.9472 15.7247 42.5939 15.858C42.2472 15.9914 41.8572 16.058 41.4239 16.058ZM48.9557 15.658V11.368H46.4257L46.3657 12.538C46.3524 12.8914 46.329 13.238 46.2957 13.578C46.269 13.918 46.219 14.2314 46.1457 14.518C46.079 14.798 45.9824 15.028 45.8557 15.208C45.729 15.3814 45.5657 15.4814 45.3657 15.508L44.6557 15.378C44.8624 15.3847 45.0324 15.3114 45.1657 15.158C45.299 14.998 45.4024 14.7814 45.4757 14.508C45.549 14.2347 45.6024 13.9247 45.6357 13.578C45.669 13.2247 45.6957 12.8647 45.7157 12.498L45.7857 10.748H49.6657V15.658H48.9557ZM44.4357 17.268V15.378H50.4857V17.268H49.8157V15.998H45.1057V17.268H44.4357ZM55.1294 15.998V14.838L55.0994 14.648V12.708C55.0994 12.2614 54.9727 11.918 54.7194 11.678C54.4727 11.438 54.1027 11.318 53.6094 11.318C53.2694 11.318 52.946 11.3747 52.6394 11.488C52.3327 11.6014 52.0727 11.7514 51.8594 11.938L51.5394 11.408C51.806 11.1814 52.126 11.008 52.4994 10.888C52.8727 10.7614 53.266 10.698 53.6794 10.698C54.3594 10.698 54.8827 10.868 55.2494 11.208C55.6227 11.5414 55.8094 12.0514 55.8094 12.738V15.998H55.1294ZM53.3194 16.048C52.926 16.048 52.5827 15.9847 52.2894 15.858C52.0027 15.7247 51.7827 15.5447 51.6294 15.318C51.476 15.0847 51.3994 14.818 51.3994 14.518C51.3994 14.2447 51.4627 13.998 51.5894 13.778C51.7227 13.5514 51.936 13.3714 52.2294 13.238C52.5294 13.098 52.9294 13.028 53.4294 13.028H55.2394V13.558H53.4494C52.9427 13.558 52.5894 13.648 52.3894 13.828C52.196 14.008 52.0994 14.2314 52.0994 14.498C52.0994 14.798 52.216 15.038 52.4494 15.218C52.6827 15.398 53.0094 15.488 53.4294 15.488C53.8294 15.488 54.1727 15.398 54.4594 15.218C54.7527 15.0314 54.966 14.7647 55.0994 14.418L55.2594 14.908C55.126 15.2547 54.8927 15.5314 54.5594 15.738C54.2327 15.9447 53.8194 16.048 53.3194 16.048ZM57.6995 15.998V10.748H58.4095V13.068H61.7195V10.748H62.4295V15.998H61.7195V13.678H58.4095V15.998H57.6995ZM66.8847 15.998V8.99805H70.3047C71.1847 8.99805 71.8447 9.16471 72.2847 9.49805C72.7314 9.83138 72.9547 10.2714 72.9547 10.818C72.9547 11.1847 72.8647 11.5047 72.6847 11.778C72.5047 12.0447 72.258 12.2514 71.9447 12.398C71.6314 12.5447 71.2714 12.618 70.8647 12.618L71.0547 12.208C71.4947 12.208 71.8847 12.2814 72.2247 12.428C72.5647 12.568 72.828 12.778 73.0147 13.058C73.208 13.338 73.3047 13.6814 73.3047 14.088C73.3047 14.688 73.068 15.158 72.5947 15.498C72.1214 15.8314 71.4247 15.998 70.5047 15.998H66.8847ZM68.4947 14.778H70.3847C70.8047 14.778 71.1214 14.7114 71.3347 14.578C71.5547 14.438 71.6647 14.218 71.6647 13.918C71.6647 13.6247 71.5547 13.408 71.3347 13.268C71.1214 13.1214 70.8047 13.048 70.3847 13.048H68.3747V11.868H70.1047C70.498 11.868 70.798 11.8014 71.0047 11.668C71.218 11.528 71.3247 11.318 71.3247 11.038C71.3247 10.7647 71.218 10.5614 71.0047 10.428C70.798 10.288 70.498 10.218 70.1047 10.218H68.4947V14.778ZM74.4212 15.998V10.618H75.9112V12.138L75.7012 11.698C75.8612 11.318 76.1178 11.0314 76.4712 10.838C76.8245 10.638 77.2545 10.538 77.7612 10.538V11.978C77.6945 11.9714 77.6345 11.968 77.5812 11.968C77.5278 11.9614 77.4712 11.958 77.4112 11.958C76.9845 11.958 76.6378 12.0814 76.3712 12.328C76.1112 12.568 75.9812 12.9447 75.9812 13.458V15.998H74.4212ZM81.3197 16.078C80.7064 16.078 80.1664 15.958 79.6997 15.718C79.2397 15.478 78.883 15.1514 78.6297 14.738C78.3764 14.318 78.2497 13.8414 78.2497 13.308C78.2497 12.768 78.373 12.2914 78.6197 11.878C78.873 11.458 79.2164 11.1314 79.6497 10.898C80.083 10.658 80.573 10.538 81.1197 10.538C81.6464 10.538 82.1197 10.6514 82.5397 10.878C82.9664 11.098 83.303 11.418 83.5497 11.838C83.7964 12.2514 83.9197 12.748 83.9197 13.328C83.9197 13.388 83.9164 13.458 83.9097 13.538C83.903 13.6114 83.8964 13.6814 83.8897 13.748H79.5197V12.838H83.0697L82.4697 13.108C82.4697 12.828 82.413 12.5847 82.2997 12.378C82.1864 12.1714 82.0297 12.0114 81.8297 11.898C81.6297 11.778 81.3964 11.718 81.1297 11.718C80.863 11.718 80.6264 11.778 80.4197 11.898C80.2197 12.0114 80.063 12.1747 79.9497 12.388C79.8364 12.5947 79.7797 12.8414 79.7797 13.128V13.368C79.7797 13.6614 79.843 13.9214 79.9697 14.148C80.103 14.368 80.2864 14.538 80.5197 14.658C80.7597 14.7714 81.0397 14.828 81.3597 14.828C81.6464 14.828 81.8964 14.7847 82.1097 14.698C82.3297 14.6114 82.5297 14.4814 82.7097 14.308L83.5397 15.208C83.293 15.488 82.983 15.7047 82.6097 15.858C82.2364 16.0047 81.8064 16.078 81.3197 16.078ZM85.1483 15.998V10.498C85.1483 9.89138 85.3283 9.40805 85.6883 9.04805C86.0483 8.68138 86.5616 8.49805 87.2283 8.49805C87.4549 8.49805 87.6716 8.52138 87.8783 8.56805C88.0916 8.61471 88.2716 8.68805 88.4183 8.78805L88.0083 9.91805C87.9216 9.85805 87.8249 9.81138 87.7183 9.77805C87.6116 9.74471 87.4983 9.72805 87.3783 9.72805C87.1516 9.72805 86.9749 9.79471 86.8483 9.92805C86.7283 10.0547 86.6683 10.248 86.6683 10.508V11.008L86.7083 11.678V15.998H85.1483ZM84.3183 11.938V10.738H88.0483V11.938H84.3183ZM89.0155 15.998V10.498C89.0155 9.89138 89.1955 9.40805 89.5555 9.04805C89.9155 8.68138 90.4288 8.49805 91.0955 8.49805C91.3221 8.49805 91.5388 8.52138 91.7455 8.56805C91.9588 8.61471 92.1388 8.68805 92.2855 8.78805L91.8755 9.91805C91.7888 9.85805 91.6921 9.81138 91.5855 9.77805C91.4788 9.74471 91.3655 9.72805 91.2455 9.72805C91.0188 9.72805 90.8421 9.79471 90.7155 9.92805C90.5955 10.0547 90.5355 10.248 90.5355 10.508V11.008L90.5755 11.678V15.998H89.0155ZM88.1855 11.938V10.738H91.9155V11.938H88.1855ZM92.7955 15.998V10.618H94.3555V15.998H92.7955ZM93.5755 9.86805C93.2888 9.86805 93.0555 9.78471 92.8755 9.61805C92.6955 9.45138 92.6055 9.24471 92.6055 8.99805C92.6055 8.75138 92.6955 8.54471 92.8755 8.37805C93.0555 8.21138 93.2888 8.12805 93.5755 8.12805C93.8621 8.12805 94.0955 8.20805 94.2755 8.36805C94.4555 8.52138 94.5455 8.72138 94.5455 8.96805C94.5455 9.22805 94.4555 9.44471 94.2755 9.61805C94.1021 9.78471 93.8688 9.86805 93.5755 9.86805ZM98.7402 15.998V8.99805H101.92C102.68 8.99805 103.35 9.14471 103.93 9.43805C104.51 9.72471 104.963 10.128 105.29 10.648C105.617 11.168 105.78 11.7847 105.78 12.498C105.78 13.2047 105.617 13.8214 105.29 14.348C104.963 14.868 104.51 15.2747 103.93 15.568C103.35 15.8547 102.68 15.998 101.92 15.998H98.7402ZM100.36 14.668H101.84C102.307 14.668 102.71 14.5814 103.05 14.408C103.397 14.228 103.663 13.9747 103.85 13.648C104.043 13.3214 104.14 12.938 104.14 12.498C104.14 12.0514 104.043 11.668 103.85 11.348C103.663 11.0214 103.397 10.7714 103.05 10.598C102.71 10.418 102.307 10.328 101.84 10.328H100.36V14.668ZM109.562 16.078C108.949 16.078 108.409 15.958 107.942 15.718C107.482 15.478 107.125 15.1514 106.872 14.738C106.619 14.318 106.492 13.8414 106.492 13.308C106.492 12.768 106.615 12.2914 106.862 11.878C107.115 11.458 107.459 11.1314 107.892 10.898C108.325 10.658 108.815 10.538 109.362 10.538C109.889 10.538 110.362 10.6514 110.782 10.878C111.209 11.098 111.545 11.418 111.792 11.838C112.039 12.2514 112.162 12.748 112.162 13.328C112.162 13.388 112.159 13.458 112.152 13.538C112.145 13.6114 112.139 13.6814 112.132 13.748H107.762V12.838H111.312L110.712 13.108C110.712 12.828 110.655 12.5847 110.542 12.378C110.429 12.1714 110.272 12.0114 110.072 11.898C109.872 11.778 109.639 11.718 109.372 11.718C109.105 11.718 108.869 11.778 108.662 11.898C108.462 12.0114 108.305 12.1747 108.192 12.388C108.079 12.5947 108.022 12.8414 108.022 13.128V13.368C108.022 13.6614 108.085 13.9214 108.212 14.148C108.345 14.368 108.529 14.538 108.762 14.658C109.002 14.7714 109.282 14.828 109.602 14.828C109.889 14.828 110.139 14.7847 110.352 14.698C110.572 14.6114 110.772 14.4814 110.952 14.308L111.782 15.208C111.535 15.488 111.225 15.7047 110.852 15.858C110.479 16.0047 110.049 16.078 109.562 16.078ZM115.01 16.078C114.55 16.078 114.107 16.0247 113.68 15.918C113.26 15.8047 112.927 15.6647 112.68 15.498L113.2 14.378C113.447 14.5314 113.737 14.658 114.07 14.758C114.41 14.8514 114.744 14.898 115.07 14.898C115.43 14.898 115.684 14.8547 115.83 14.768C115.984 14.6814 116.06 14.5614 116.06 14.408C116.06 14.2814 116 14.188 115.88 14.128C115.767 14.0614 115.614 14.0114 115.42 13.978C115.227 13.9447 115.014 13.9114 114.78 13.878C114.554 13.8447 114.324 13.8014 114.09 13.748C113.857 13.688 113.644 13.6014 113.45 13.488C113.257 13.3747 113.1 13.2214 112.98 13.028C112.867 12.8347 112.81 12.5847 112.81 12.278C112.81 11.938 112.907 11.638 113.1 11.378C113.3 11.118 113.587 10.9147 113.96 10.768C114.334 10.6147 114.78 10.538 115.3 10.538C115.667 10.538 116.04 10.578 116.42 10.658C116.8 10.738 117.117 10.8547 117.37 11.008L116.85 12.118C116.59 11.9647 116.327 11.8614 116.06 11.808C115.8 11.748 115.547 11.718 115.3 11.718C114.954 11.718 114.7 11.7647 114.54 11.858C114.38 11.9514 114.3 12.0714 114.3 12.218C114.3 12.3514 114.357 12.4514 114.47 12.518C114.59 12.5847 114.747 12.638 114.94 12.678C115.134 12.718 115.344 12.7547 115.57 12.788C115.804 12.8147 116.037 12.858 116.27 12.918C116.504 12.978 116.714 13.0647 116.9 13.178C117.094 13.2847 117.25 13.4347 117.37 13.628C117.49 13.8147 117.55 14.0614 117.55 14.368C117.55 14.7014 117.45 14.998 117.25 15.258C117.05 15.5114 116.76 15.7114 116.38 15.858C116.007 16.0047 115.55 16.078 115.01 16.078ZM118.513 15.998V10.618H120.073V15.998H118.513ZM119.293 9.86805C119.006 9.86805 118.773 9.78471 118.593 9.61805C118.413 9.45138 118.323 9.24471 118.323 8.99805C118.323 8.75138 118.413 8.54471 118.593 8.37805C118.773 8.21138 119.006 8.12805 119.293 8.12805C119.58 8.12805 119.813 8.20805 119.993 8.36805C120.173 8.52138 120.263 8.72138 120.263 8.96805C120.263 9.22805 120.173 9.44471 119.993 9.61805C119.82 9.78471 119.586 9.86805 119.293 9.86805ZM124.051 18.018C123.544 18.018 123.054 17.9547 122.581 17.828C122.114 17.708 121.724 17.5247 121.411 17.278L122.031 16.158C122.257 16.3447 122.544 16.4914 122.891 16.598C123.244 16.7114 123.591 16.768 123.931 16.768C124.484 16.768 124.884 16.6447 125.131 16.398C125.384 16.1514 125.511 15.7847 125.511 15.298V14.488L125.611 13.138L125.591 11.778V10.618H127.071V15.098C127.071 16.098 126.811 16.8347 126.291 17.308C125.771 17.7814 125.024 18.018 124.051 18.018ZM123.811 15.738C123.311 15.738 122.857 15.6314 122.451 15.418C122.051 15.198 121.727 14.8947 121.481 14.508C121.241 14.1147 121.121 13.658 121.121 13.138C121.121 12.6114 121.241 12.1547 121.481 11.768C121.727 11.3747 122.051 11.0714 122.451 10.858C122.857 10.6447 123.311 10.538 123.811 10.538C124.264 10.538 124.664 10.6314 125.011 10.818C125.357 10.998 125.627 11.2814 125.821 11.668C126.014 12.048 126.111 12.538 126.111 13.138C126.111 13.7314 126.014 14.2214 125.821 14.608C125.627 14.988 125.357 15.2714 125.011 15.458C124.664 15.6447 124.264 15.738 123.811 15.738ZM124.121 14.458C124.394 14.458 124.637 14.4047 124.851 14.298C125.064 14.1847 125.231 14.028 125.351 13.828C125.471 13.628 125.531 13.398 125.531 13.138C125.531 12.8714 125.471 12.6414 125.351 12.448C125.231 12.248 125.064 12.0947 124.851 11.988C124.637 11.8747 124.394 11.818 124.121 11.818C123.847 11.818 123.604 11.8747 123.391 11.988C123.177 12.0947 123.007 12.248 122.881 12.448C122.761 12.6414 122.701 12.8714 122.701 13.138C122.701 13.398 122.761 13.628 122.881 13.828C123.007 14.028 123.177 14.1847 123.391 14.298C123.604 14.4047 123.847 14.458 124.121 14.458ZM131.793 10.538C132.219 10.538 132.599 10.6247 132.933 10.798C133.273 10.9647 133.539 11.2247 133.733 11.578C133.926 11.9247 134.023 12.3714 134.023 12.918V15.998H132.463V13.158C132.463 12.7247 132.366 12.4047 132.173 12.198C131.986 11.9914 131.719 11.888 131.373 11.888C131.126 11.888 130.903 11.9414 130.703 12.048C130.509 12.148 130.356 12.3047 130.243 12.518C130.136 12.7314 130.083 13.0047 130.083 13.338V15.998H128.523V10.618H130.013V12.108L129.733 11.658C129.926 11.298 130.203 11.0214 130.563 10.828C130.923 10.6347 131.333 10.538 131.793 10.538Z" fill="#F6F6F6"/>
<path fill-rule="evenodd" clip-rule="evenodd" d="M159.491 11.951C158.884 11.344 158.008 10.9933 156.861 10.8988V10.4739C157.832 10.3795 158.581 10.0557 159.107 9.50263C159.633 8.94954 159.896 8.23458 159.896 7.35773C159.896 6.31901 159.505 5.49613 158.723 4.88908C157.954 4.28204 156.78 3.97852 155.202 3.97852H144.093V14.3016C144.522 14.3508 144.995 14.3845 145.508 14.3992C146.364 14.4238 147.307 14.3947 148.302 14.3038V12.3962H154.493C155.006 12.3962 155.391 12.5041 155.647 12.72C155.903 12.9358 156.031 13.2393 156.031 13.6305C156.031 14.0082 155.903 14.305 155.647 14.5209C155.545 14.6065 155.423 14.6751 155.281 14.7268L155.322 14.8412C151.884 16.056 148.264 16.5027 145.449 16.4219C144.978 16.4084 144.524 16.3799 144.093 16.3367V18.1429H155.101C158.635 18.1429 160.402 16.8614 160.402 14.2983C160.402 13.327 160.099 12.5446 159.491 11.951ZM148.302 9.52286V7.27679H154.089C154.561 7.27679 154.918 7.37797 155.161 7.58032C155.404 7.76918 155.525 8.03897 155.525 8.38971C155.525 8.74045 155.404 9.01699 155.161 9.21934C154.918 9.42169 154.561 9.52286 154.089 9.52286H148.302Z" fill="#F6F6F6"/>
<mask id="mask0_209_99237" style="mask-type:alpha" maskUnits="userSpaceOnUse" x="142" y="13" width="13" height="5">
<path d="M142.069 15.3228V17.7133L147.338 16.9158L153.399 15.6425C153.871 15.6425 154.229 15.5413 154.472 15.339C154.714 15.1366 154.836 14.8601 154.836 14.5093C154.836 14.1586 154.714 13.8888 154.472 13.7C154.229 13.4976 153.871 13.3964 153.399 13.3964H147.612L147.668 13.3203L146.379 14.5093L142.069 15.3228Z" fill="url(#paint0_linear_209_99237)"/>
</mask>
<g mask="url(#mask0_209_99237)">
<path d="M146.695 9.11361C144.517 9.54431 140.25 10.9871 140.598 13.3129C141.034 16.22 161.72 15.9847 164.925 3.64841" stroke="#F6F6F6" stroke-width="1.15628"/>
</g>
<path fill-rule="evenodd" clip-rule="evenodd" d="M163.044 6.5979C161.641 8.86514 159.493 10.5518 157.042 11.7626L157.554 12.7993C159.587 11.7951 161.468 10.4566 162.93 8.72008L163.044 6.5979ZM164.846 5.64744C165.101 5.06194 165.316 4.44507 165.485 3.79561L164.753 3.60547L164.647 5.55917L164.846 5.64744ZM146.583 8.54828C145.459 8.77054 143.787 9.25421 142.423 9.99664C141.742 10.3672 141.102 10.8217 140.651 11.3711C140.192 11.9304 139.909 12.6161 140.027 13.4003C140.102 13.9044 140.47 14.2597 140.861 14.4991C141.263 14.7455 141.79 14.9344 142.389 15.0756C143.593 15.3596 145.21 15.4801 147.02 15.4011L146.97 14.2459C145.227 14.3219 143.723 14.2023 142.655 13.9503C142.118 13.8236 141.722 13.6704 141.465 13.5132C141.197 13.3491 141.172 13.2393 141.17 13.229C141.113 12.8504 141.234 12.4836 141.545 12.1048C141.864 11.7161 142.361 11.3469 142.976 11.0122C144.203 10.3441 145.753 9.89101 146.807 9.68257L146.583 8.54828Z" fill="#F6F6F6"/>
<path d="M165.855 0.431019L165.621 4.10826L169.002 5.57301L165.325 5.33913L163.86 8.72015L164.094 5.04291L160.713 3.57816L164.39 3.81204L165.855 0.431019Z" fill="#F6F6F6"/>
</g>
<defs>
<linearGradient id="paint0_linear_209_99237" x1="154.914" y1="11.1977" x2="112.283" y2="25.7768" gradientUnits="userSpaceOnUse">
<stop stop-color="white"/>
<stop offset="1"/>
</linearGradient>
</defs>
</svg>
